<ttFont>
          <CharString index="0">
            9 -106 callsubr
            -9 vhcurveto
            return
          </CharString>
          <CharString index="1">
            3 -104 callsubr
            -3 4 return
          </CharString>
          <CharString index="2">
            -97 callsubr
            -8 3 return
          </CharString>
          <CharString index="3">
            14 callgsubr
            -75 callsubr
            return
          </CharString>
          <CharString index="4">
            -79 callgsubr
            -19 vlineto
            return
          </CharString>
          <CharString index="5">
            -107 callgsubr
            331 -102 callgsubr
            -87 -54 -53 -88 -1 hvcurveto
            -106 vlineto
            return
          </CharString>
          <CharString index="6">
            670 callgsubr
            -99 callgsubr
            return
          </CharString>
          <CharString index="7">
            hvcurveto
            -4 hlineto
            -100 callgsubr
            return
          </CharString>
          <CharString index="8">
            4 -86 callsubr
            return
          </CharString>
          <CharString index="9">
            -97 callgsubr
            -153 258 rlineto
            return
          </CharString>
          <CharString index="10">
            -9 -103 callgsubr
            return
          </CharString>
          <CharString index="11">
            hlineto
            -96 callgsubr
            return
          </CharString>
          <CharString index="12">
            hlineto
            -84 callgsubr
            return
          </CharString>
          <CharString index="13">
            -96 callsubr
            -213 vlineto
            -74 -38 -21 -50 487 callgsubr
            214 35 callgsubr
            return
          </CharString>
          <CharString index="14">
            rmoveto
            11 callgsubr
            -51 244 callgsubr
            51 554 callgsubr
            -140 hlineto
            -10 -4 340 callsubr
            20 -24 162 -236 rlineto
            -6 4 4 -4 7 hhcurveto
            28 256 callsubr
            -2 534 callgsubr
            return
          </CharString>
          <CharString index="15">
            646 callgsubr
            42 71 hvcurveto
            91 20 vlineto
            79 50 36 90 hvcurveto
            15 566 callsubr
            return
          </CharString>
          <CharString index="16">
            -70 callsubr
            -31 -59 callgsubr
            return
          </CharString>
          <CharString index="17">
            -2 -91 callgsubr
            return
          </CharString>
          <CharString index="18">
            7 -99 callsubr
            return
          </CharString>
          <CharString index="19">
            -4 9 vhcurveto
            return
          </CharString>
          <CharString index="20">
            211 callgsubr
            -299 467 callgsubr
            -147 hlineto
            -11 21 -17 16 -24 9 rrcurveto
            4 vlineto
            44 17 23 41 56 vvcurveto
            27 vlineto
            89 -52 52 -89 vhcurveto
            -92 -94 callgsubr
            89 hlineto
            63 33 -36 -63 hvcurveto
            -25 vlineto
            -63 -33 -34 -63 vhcurveto
            -63 hlineto
            -8 -4 -44 callgsubr
            63 hlineto
            63 33 -33 -63 hvcurveto
            -38 vlineto
            -63 -33 -36 -63 vhcurveto
            -124 -45 callgsubr
            126 hlineto
            87 55 54 89 hvcurveto
            42 vlineto
            8 -1 8 -1 8 vhcurveto
            134 hlineto
            8 2 -4 -5 hvcurveto
            202 callsubr
            return
          </CharString>
          <CharString index="21">
            3 9 hvcurveto
            return
          </CharString>
          <CharString index="22">
            -9 4 -3 8 -84 callsubr
            return
          </CharString>
          <CharString index="23">
            vhcurveto
            25 hlineto
            8 -99 callsubr
            560 35 callgsubr
            84 -26 callsubr
            return
          </CharString>
          <CharString index="24">
            rlineto
            -6 3 4 -74 callgsubr
            return
          </CharString>
          <CharString index="25">
            -60 -35 -36 -64 -48 callgsubr
            9 callsubr
            -53 hlineto
            return
          </CharString>
          <CharString index="26">
            159 callgsubr
            -27 8 -22 hvcurveto
            -10 3 6 -5 9 hhcurveto
            20 hlineto
            7 3 4 204 callgsubr
            return
          </CharString>
          <CharString index="27">
            70 hlineto
            37 31 9 26 17 hvcurveto
            -87 callgsubr
            return
          </CharString>
          <CharString index="28">
            vlineto
            -65 callsubr
            return
          </CharString>
          <CharString index="29">
            -87 52 -56 89 vhcurveto
            -80 callsubr
            return
          </CharString>
          <CharString index="30">
            264 588 rmoveto
            4 hlineto
            116 -371 rlineto
            -235 hlineto
            -81 -217 rmoveto
            7 3 3 9 3 hvcurveto
            54 160 rlineto
            262 hlineto
            54 -160 233 callgsubr
            32 hlineto
            7 2 3 9 -2 hvcurveto
            -199 619 rlineto
            9 -3 -4 3 -7 hhcurveto
            -47 hlineto
            -7 -5 -3 -9 -2 hvcurveto
            -199 -619 rlineto
            -9 -3 3 -3 7 hhcurveto
            return
          </CharString>
          <CharString index="31">
            -70 callgsubr
            4 3 9 hvcurveto
            return
          </CharString>
          <CharString index="32">
            19 vlineto
            7 return
          </CharString>
          <CharString index="33">
            hlineto
            8 -71 callsubr
            -8 vhcurveto
            return
          </CharString>
          <CharString index="34">
            rmoveto
            9 -4 3 -7 vhcurveto
            -31 hlineto
            -69 callsubr
            return
          </CharString>
          <CharString index="35">
            -23 callgsubr
            -178 263 rlineto
            return
          </CharString>
          <CharString index="36">
            4 -46 callgsubr
            -4 4 return
          </CharString>
          <CharString index="37">
            -96 callsubr
            -159 51 callsubr
            -60 119 callgsubr
            return
          </CharString>
          <CharString index="38">
            -54 callsubr
            4 3 9 hvcurveto
            return
          </CharString>
          <CharString index="39">
            3 -88 callgsubr
            return
          </CharString>
          <CharString index="40">
            10 274 hmoveto
            -64 callsubr
            return
          </CharString>
          <CharString index="41">
            -53 87 vhcurveto
            -47 callgsubr
            return
          </CharString>
          <CharString index="42">
            -7 -55 callgsubr
            return
          </CharString>
          <CharString index="43">
            -61 callsubr
            -29 407 callgsubr
            104 callgsubr
            354 vlineto
            -77 callgsubr
            -356 vlineto
            -88 53 -54 85 vhcurveto
            return
          </CharString>
          <CharString index="44">
            hlineto
            9 3 4 7 478 callgsubr
            return
          </CharString>
          <CharString index="45">
            hlineto
            674 callsubr
            -75 43 -35 84 vhcurveto
            60 hlineto
            52 21 -20 -48 hvcurveto
            -32 vlineto
            -51 641 callsubr
            -54 hlineto
            -55 -28 541 callgsubr
            -8 vhcurveto
            -23 hlineto
            -7 -5 26 callsubr
            -222 623 callsubr
            109 4 vlineto
            -26 16 31 -8 37 hhcurveto
            52 347 callsubr
            38 vlineto
            28 return
          </CharString>
          <CharString index="46">
            57 33 24 28 14 hvcurveto
            4 -40 hlineto
            -9 4 -3 7 vhcurveto
            29 609 callsubr
            return
          </CharString>
          <CharString index="47">
            -6 -4 340 callgsubr
            2 -2 hvcurveto
            86 -133 276 callsubr
            74 callsubr
            454 callsubr
            2 hvcurveto
            return
          </CharString>
          <CharString index="48">
            vlineto
            62 30 38 60 vhcurveto
            69 hlineto
            58 23 -26 -59 hvcurveto
            -23 323 callgsubr
            24 565 callsubr
            9 hvcurveto
            28 vlineto
            80 -43 42 -80 vhcurveto
            -76 hlineto
            -59 -24 22 56 56 26 22 58 hvcurveto
            156 246 callsubr
            185 callsubr
            return
          </CharString>
          <CharString index="49">
            -91 vlineto
            -78 callsubr
            return
          </CharString>
          <CharString index="50">
            233 hmoveto
            7 4 4 8 2 hvcurveto
            149 564 rlineto
            4 hlineto
            148 -564 rlineto
            -8 2 5 -4 7 hhcurveto
            51 666 callsubr
            10 2 hvcurveto
            137 619 rlineto
            9 2 -4 3 -7 hhcurveto
            -34 hlineto
            -7 -5 -2 -10 -2 hvcurveto
            -118 -574 rlineto
            -5 hlineto
            -153 575 rlineto
            9 -2 -5 2 635 callsubr
            -4 -2 -9 -2 hvcurveto
            -152 -575 rlineto
            -5 hlineto
            -119 574 rlineto
            10 -2 -4 2 -7 hhcurveto
            -33 530 callsubr
            2 hvcurveto
            137 -619 rlineto
            -9 2 5 -3 7 hhcurveto
            return
          </CharString>
          <CharString index="51">
            29 -43 -49 callgsubr
            return
          </CharString>
          <CharString index="52">
            7 -58 callgsubr
            return
          </CharString>
          <CharString index="53">
            -40 callgsubr
            31 hlineto
            7 return
          </CharString>
          <CharString index="54">
            161 callgsubr
            -38 callgsubr
            return
          </CharString>
          <CharString index="55">
            hlineto
            9 4 3 8 539 callsubr
            return
          </CharString>
          <CharString index="56">
            vlineto
            -55 callsubr
            return
          </CharString>
          <CharString index="57">
            42 324 hmoveto
            230 callgsubr
            168 vlineto
            13 -8 7 -11 vhcurveto
            -156 hlineto
            -8 371 callsubr
            8 vhcurveto
            115 -96 callsubr
            -132 vlineto
            -63 -32 -36 -62 vhcurveto
            -101 hlineto
            104 callgsubr
            355 88 callgsubr
            101 512 callgsubr
            -63 205 callgsubr
            45 vlineto
            88 -55 54 -86 vhcurveto
            -109 hlineto
            -86 -54 675 callgsubr
            54 -54 86 vhcurveto
            return
          </CharString>
          <CharString index="58">
            rmoveto
            638 callgsubr
            118 325 callgsubr
            49 vlineto
            208 -349 -97 144 vvcurveto
            50 vlineto
            66 32 36 64 vhcurveto
            103 hlineto
            64 33 -36 -64 hvcurveto
            -25 vlineto
            -8 82 callgsubr
            8 hvcurveto
            28 vlineto
            88 -55 54 -86 vhcurveto
            -116 467 callsubr
            -55 vlineto
            -197 349 101 -162 vvcurveto
            -42 vlineto
            -65 643 callsubr
            -104 hlineto
            -64 -33 36 64 hvcurveto
            33 vlineto
            331 callgsubr
            -4 -2 -9 hvcurveto
            endchar
          </CharString>
          <CharString index="59">
            -9 -3 -44 callgsubr
            return
          </CharString>
          <CharString index="60">
            hvcurveto
            -18 callgsubr
            return
          </CharString>
          <CharString index="61">
            152 callgsubr
            -226 174 callsubr
            86 vhcurveto
            return
          </CharString>
          <CharString index="62">
            599 callgsubr
            36 hlineto
            63 351 callgsubr
            -102 vlineto
            -64 -34 -35 -63 vhcurveto
            -46 hlineto
            -48 callsubr
            return
          </CharString>
          <CharString index="63">
            36 90 hvcurveto
            15 137 callgsubr
            return
          </CharString>
          <CharString index="64">
            vlineto
            55 27 29 55 -22 callgsubr
            return
          </CharString>
          <CharString index="65">
            -9 -3 -4 -7 -47 callsubr
            return
          </CharString>
          <CharString index="66">
            309 callgsubr
            -145 -7 callsubr
            -13 119 callsubr
            145 228 callsubr
            return
          </CharString>
          <CharString index="67">
            -38 99 -152 rmoveto
            112 31 92 88 29 hvcurveto
            160 470 rlineto
            9 2 -4 3 -7 hhcurveto
            -30 hlineto
            -7 -4 -3 -9 -2 hvcurveto
            -147 -429 rlineto
            -4 hlineto
            -147 429 rlineto
            9 -2 505 callgsubr
            -7 -4 -3 -9 3 hvcurveto
            159 -459 rlineto
            -8 2 4 -4 8 hhcurveto
            19 hlineto
            -65 -24 -20 -68 -88 hhcurveto
            -27 461 callsubr
            -4 9 vhcurveto
            return
          </CharString>
          <CharString index="68">
            -9 5 -3 7 vhcurveto
            25 hlineto
            8 4 3 9 hvcurveto
            560 48 callsubr
            return
          </CharString>
          <CharString index="69">
            -101 callgsubr
            -87 -54 -53 -88 -1 hvcurveto
            return
          </CharString>
          <CharString index="70">
            320 rmoveto
            -62 -34 -36 -64 vhcurveto
            206 callgsubr
            214 -95 callsubr
            return
          </CharString>
          <CharString index="71">
            3 7 -21 callgsubr
            return
          </CharString>
          <CharString index="72">
            8 -95 callgsubr
            return
          </CharString>
          <CharString index="73">
            -9 callgsubr
            534 callsubr
            55 return
          </CharString>
          <CharString index="74">
            vlineto
            -64 -33 -36 -64 665 callsubr
            -63 -25 27 63 hvcurveto
            42 vlineto
            56 25 29 59 vhcurveto
            39 126 callgsubr
            -41 256 callgsubr
            62 vlineto
            59 23 29 57 vhcurveto
            return
          </CharString>
          <CharString index="75">
            -48 -36 -19 callsubr
            return
          </CharString>
          <CharString index="76">
            477 callgsubr
            18 3 15 5 13 vhcurveto
            220 -225 rlineto
            -23 -16 -27 -12 -37 hhcurveto
            -261 59 callgsubr
            return
          </CharString>
          <CharString index="77">
            vlineto
            -11 callgsubr
            return
          </CharString>
          <CharString index="78">
            hlineto
            1 callsubr
            return
          </CharString>
          <CharString index="79">
            hlineto
            147 callsubr
            -5 vvcurveto
            return
          </CharString>
          <CharString index="80">
            10 2 4 8 hvcurveto
            19 92 callsubr
            return
          </CharString>
          <CharString index="81">
            hlineto
            -27 callsubr
            return
          </CharString>
          <CharString index="82">
            3 7 vhcurveto
            return
          </CharString>
          <CharString index="83">
            2 callgsubr
            -87 -54 -53 -88 hvcurveto
            return
          </CharString>
          <CharString index="84">
            rmoveto
            -6 -2 7 callgsubr
            2 -3 -6 hvcurveto
            return
          </CharString>
          <CharString index="85">
            hlineto
            47 33 15 32 38 callgsubr
            return
          </CharString>
          <CharString index="86">
            127 callgsubr
            -95 54 -41 78 vhcurveto
            70 callgsubr
            return
          </CharString>
          <CharString index="87">
            -59 -35 -34 -61 vhcurveto
            -35 hlineto
            return
          </CharString>
          <CharString index="88">
            -17 -30 -14 hvcurveto
            -4 138 8 callgsubr
            return
          </CharString>
          <CharString index="89">
            -95 callsubr
            -345 vlineto
            -7 0 -7 -1 -6 vhcurveto
            -210 214 445 callsubr
            7 29 hhcurveto
            678 callgsubr
            20 158 callgsubr
            -59 hlineto
            return
          </CharString>
          <CharString index="90">
            rmoveto
            -5 -2 -4 -8 vhcurveto
            -204 hlineto
            -6 -3 3 7 hvcurveto
            225 -19 callgsubr
            return
          </CharString>
          <CharString index="91">
            rmoveto
            -64 -40 -34 -63 vhcurveto
            -64 hlineto
            -62 -33 36 62 hvcurveto
            194 462 callsubr
            158 -96 callsubr
            -108 -427 rmoveto
            57 33 23 29 14 hvcurveto
            4 -77 hlineto
            -63 -32 -36 -62 vhcurveto
            -178 hlineto
            -9 -2 -4 -6 hvcurveto
            -24 507 callgsubr
            182 hlineto
            290 callgsubr
            -212 152 callgsubr
            -198 vlineto
            -87 53 -54 86 vhcurveto
            return
          </CharString>
          <CharString index="92">
            8 4 4 7 hvcurveto
            20 176 callgsubr
            -60 hlineto
            return
          </CharString>
          <CharString index="93">
            22 -51 callsubr
            return
          </CharString>
          <CharString index="94">
            15 callgsubr
            4 -3 return
          </CharString>
          <CharString index="95">
            hlineto
            83 53 43 95 hvcurveto
            89 vlineto
            86 -47 39 -83 -85 -46 -39 -86 vhcurveto
            return
          </CharString>
          <CharString index="96">
            449 callsubr
            -13 119 callsubr
            return
          </CharString>
          <CharString index="97">
            170 callgsubr
            49 vlineto
            9 490 callgsubr
            -28 hlineto
            24 callgsubr
            -47 92 callgsubr
            -117 hlineto
            104 callgsubr
            355 88 callgsubr
            117 hlineto
            62 33 -36 -63 hvcurveto
            -47 vlineto
            -9 4 -3 7 vhcurveto
            28 594 callgsubr
            49 vlineto
            88 402 callgsubr
            -126 hlineto
            -86 -54 675 callgsubr
            54 -54 86 vhcurveto
            endchar
          </CharString>
          <CharString index="98">
            3 4 44 callsubr
            return
          </CharString>
          <CharString index="99">
            271 -93 callsubr
            return
          </CharString>
          <CharString index="100">
            vlineto
            -98 59 19 callgsubr
            return
          </CharString>
          <CharString index="101">
            -4 26 callsubr
            return
          </CharString>
          <CharString index="102">
            67 callgsubr
            155 hlineto
            14 11 10 16 hvcurveto
            127 vlineto
            6 3 3 7 vhcurveto
            return
          </CharString>
          <CharString index="103">
            -3 4 -9 return
          </CharString>
          <CharString index="104">
            -8 3 6 -3 7 hhcurveto
            20 hlineto
            7 3 247 callsubr
            -4 17 217 callsubr
            return
          </CharString>
          <CharString index="105">
            hlineto
            -30 callgsubr
            return
          </CharString>
          <CharString index="106">
            -87 callgsubr
            endchar
          </CharString>
          <CharString index="107">
            -21 -48 vhcurveto
            -22 hlineto
            -48 -38 191 callgsubr
            185 callsubr
            return
          </CharString>
          <CharString index="108">
            134 callgsubr
            -12 128 callsubr
            return
          </CharString>
          <CharString index="109">
            -8 16 callgsubr
            return
          </CharString>
          <CharString index="110">
            -107 callgsubr
            76 -28 callsubr
            return
          </CharString>
          <CharString index="111">
            6 50 callsubr
            return
          </CharString>
          <CharString index="112">
            322 rmoveto
            235 callsubr
            -29 hlineto
            -62 358 callsubr
            246 31 callsubr
            7 2 -3 -6 hvcurveto
            return
          </CharString>
          <CharString index="113">
            95 callsubr
            25 hlineto
            8 254 callsubr
            return
          </CharString>
          <CharString index="114">
            -69 -41 -43 -74 vhcurveto
            -80 hlineto
            return
          </CharString>
          <CharString index="115">
            303 callsubr
            296 callgsubr
            106 169 callsubr
            -28 350 callgsubr
            return
          </CharString>
          <CharString index="116">
            -71 callsubr
            -9 vhcurveto
            return
          </CharString>
          <CharString index="117">
            17 callgsubr
            34 23 59 return
          </CharString>
          <CharString index="118">
            hhcurveto
            19 callsubr
            return
          </CharString>
          <CharString index="119">
            -92 34 11 rmoveto
            -65 callsubr
            313 -2 callsubr
            -258 4 hlineto
            258 411 rlineto
            3 5 2 4 8 vvcurveto
            -14 callsubr
            -300 hlineto
            -8 371 callsubr
            8 vhcurveto
            250 -4 hlineto
            -262 -417 rlineto
            -4 -5 -2 -4 -10 vvcurveto
            return
          </CharString>
          <CharString index="120">
            630 callgsubr
            -31 -76 callgsubr
            81 -106 callgsubr
            return
          </CharString>
          <CharString index="121">
            190 callsubr
            8 vhcurveto
            return
          </CharString>
          <CharString index="122">
            -9 4 -3 7 vhcurveto
            28 hlineto
            6 4 81 callsubr
            -4 -3 -8 hvcurveto
            return
          </CharString>
          <CharString index="123">
            8 -58 callgsubr
            return
          </CharString>
          <CharString index="124">
            vlineto
            49 callsubr
            return
          </CharString>
          <CharString index="125">
            140 631 rmoveto
            33 callgsubr
            29 506 callgsubr
            return
          </CharString>
          <CharString index="126">
            -34 -33 callgsubr
            return
          </CharString>
          <CharString index="127">
            3 callsubr
            -256 vlineto
            391 callgsubr
            return
          </CharString>
          <CharString index="128">
            -33 36 63 hvcurveto
            return
          </CharString>
          <CharString index="129">
            rmoveto
            -10 8 11 7 7 10 5 13 rlinecurve
            9 -8 rlineto
            10 -234 rmoveto
            -64 -30 -38 -64 vhcurveto
            -87 hlineto
            -63 -31 38 64 hvcurveto
            55 vlineto
            64 21 37 63 vhcurveto
            106 hlineto
            63 22 -37 -64 hvcurveto
            -287 370 rmoveto
            23 26 12 -10 rlineto
            -2 402 callsubr
            -6 hvcurveto
            -27 vlineto
            -130 78 423 callsubr
            7 2 -3 -6 hvcurveto
            -140 vlineto
            -53 19 653 callgsubr
            -43 -20 -20 -39 -66 vvcurveto
            -59 vlineto
            return
          </CharString>
          <CharString index="130">
            14 179 callsubr
            return
          </CharString>
          <CharString index="131">
            -9 4 -3 6 vhcurveto
            30 hlineto
            7 73 callgsubr
            return
          </CharString>
          <CharString index="132">
            143 callsubr
            560 35 callgsubr
            return
          </CharString>
          <CharString index="133">
            -3 -9 hvcurveto
            return
          </CharString>
          <CharString index="134">
            -103 360 34 rmoveto
            174 callgsubr
            -140 hlineto
            104 callgsubr
            222 88 callgsubr
            140 hlineto
            9 2 3 7 hvcurveto
            254 callgsubr
            -144 -46 callsubr
            144 hlineto
            684 callgsubr
            return
          </CharString>
          <CharString index="135">
            6 4 -1 4 -2 8 hvcurveto
            -6 17 return
          </CharString>
          <CharString index="136">
            -184 114 hmoveto
            591 callgsubr
            vlineto
            68 39 43 65 vhcurveto
            47 hlineto
            8 -1 3 4 7 vvcurveto
            24 374 callsubr
            -60 -36 -30 -24 -12 hvcurveto
            -4 42 40 callgsubr
            return
          </CharString>
          <CharString index="137">
            179 rmoveto
            -63 -33 -32 -62 vhcurveto
            -7 hlineto
            -62 -32 680 callsubr
            32 31 62 vhcurveto
            7 hlineto
            62 33 -31 -64 hvcurveto
            -244 -125 rmoveto
            -63 -32 -32 -62 vhcurveto
            -7 hlineto
            -62 -33 680 callsubr
            33 31 62 vhcurveto
            7 hlineto
            62 32 -31 -64 hvcurveto
            -312 319 -98 callgsubr
            427 -95 callsubr
            -122 vlineto
            -5 -2 -3 -7 -1 vhcurveto
            -43 -7 -31 -20 -18 -32 rrcurveto
            40 -21 -40 21 -57 hhcurveto
            -8 hlineto
            -87 -54 -49 -90 hvcurveto
            -126 vlineto
            -89 54 -49 87 vhcurveto
            8 hlineto
            57 40 21 39 21 hvcurveto
            -39 21 40 -21 57 hhcurveto
            8 hlineto
            87 54 49 89 hvcurveto
            126 vlineto
            80 -41 44 -71 12 vhcurveto
            -7 2 -1 3 5 vvcurveto
            122 35 callgsubr
            184 -7 callgsubr
          </CharString>
          <CharString index="138">
            89 callsubr
            hlineto
            return
          </CharString>
          <CharString index="139">
            102 callsubr
            -66 vlineto
            -51 19 -33 44 328 callsubr
            -47 vlineto
            -86 49 -44 85 vhcurveto
            return
          </CharString>
          <CharString index="140">
            -29 callsubr
            -51 hlineto
            -9 -3 -4 -7 hvcurveto
            return
          </CharString>
          <CharString index="141">
            4 218 callgsubr
            return
          </CharString>
          <CharString index="142">
            vvcurveto
            37 callgsubr
          </CharString>
          <CharString index="143">
            rmoveto
            6 2 -8 callgsubr
            -672 -94 callgsubr
            273 -95 callsubr
            -342 vlineto
            494 callgsubr
            9 3 -46 callgsubr
            -4 callsubr
            343 callgsubr
            5 3 9 hvcurveto
            332 vlineto
            -45 callsubr
            49 hlineto
            87 55 53 88 483 callgsubr
            -55 53 -87 vhcurveto
            227 callsubr
            hlineto
            return
          </CharString>
          <CharString index="144">
            rmoveto
            -9 4 -3 7 vhcurveto
            27 506 callgsubr
            106 169 callsubr
            -27 151 callgsubr
            return
          </CharString>
          <CharString index="145">
            4 144 callgsubr
            return
          </CharString>
          <CharString index="146">
            102 -8 callsubr
            return
          </CharString>
          <CharString index="147">
            876 rmoveto
            9 -4 3 -7 vhcurveto
            -27 243 callgsubr
            27 506 callgsubr
            13 -157 rmoveto
            81 39 39 84 hvcurveto
            6 vlineto
            10 -5 4 -8 vhcurveto
            -20 hlineto
            -8 216 callgsubr
            -68 hlineto
            -58 -21 439 callgsubr
            -4 3 -7 vhcurveto
            -22 216 callsubr
            80 vhcurveto
            return
          </CharString>
          <CharString index="148">
            rmoveto
            356 callgsubr
            return
          </CharString>
          <CharString index="149">
            503 callgsubr
            18 3 16 5 13 vhcurveto
            217 -221 rlineto
            -26 -16 -28 -14 -40 hhcurveto
            return
          </CharString>
          <CharString index="150">
            67 callsubr
            -4 3 -7 vhcurveto
            return
          </CharString>
          <CharString index="151">
            142 callsubr
            -3 return
          </CharString>
          <CharString index="152">
            -35 49 callgsubr
            138 hlineto
            4 callsubr
            return
          </CharString>
          <CharString index="153">
            rmoveto
            21 hlineto
            10 5 2 7 5 hvcurveto
            64 109 rlineto
            6 4 -2 55 callsubr
            endchar
          </CharString>
          <CharString index="154">
            451 callsubr
            261 callgsubr
            -53 86 vhcurveto
            return
          </CharString>
          <CharString index="155">
            vlineto
            6 2 -36 callsubr
            return
          </CharString>
          <CharString index="156">
            -8 -55 callgsubr
            return
          </CharString>
          <CharString index="157">
            2 -25 callsubr
            return
          </CharString>
          <CharString index="158">
            vlineto
            -65 -36 -24 -43 vhcurveto
            return
          </CharString>
          <CharString index="159">
            vlineto
            -59 -24 -22 -58 vhcurveto
            -12 hlineto
            -58 -24 22 59 hvcurveto
            132 vlineto
            31 -17 15 -30 vhcurveto
            -185 4 hlineto
            44 16 23 41 55 vvcurveto
            32 vlineto
            89 -52 51 -88 vhcurveto
            -94 -45 callgsubr
            90 hlineto
            65 31 -34 -63 hvcurveto
            -28 vlineto
            -59 -30 -37 -66 vhcurveto
            -60 -34 callgsubr
            60 hlineto
            64 32 -36 -65 hvcurveto
            -35 vlineto
            -65 -34 -37 -62 vhcurveto
            -32 hlineto
            -63 -35 36 65 hvcurveto
            36 292 callgsubr
            -37 vlineto
            -89 56 -55 87 vhcurveto
            37 hlineto
            89 53 56 88 hvcurveto
            46 vlineto
            27 -5 23 -11 19 583 callsubr
            -128 vlineto
            -82 44 -40 81 vhcurveto
            20 hlineto
            81 44 40 82 hvcurveto
            return
          </CharString>
          <CharString index="160">
            -41 -20 -47 -16 hvcurveto
            -4 hlineto
            -101 callsubr
            36 23 55 59 return
          </CharString>
          <CharString index="161">
            rmoveto
            7 -5 -5 2 -10 117 callgsubr
            24 hlineto
            6 4 552 callgsubr
            return
          </CharString>
          <CharString index="162">
            667 callsubr
            -54 -97 -53 43 callgsubr
            return
          </CharString>
          <CharString index="163">
            85 callgsubr
            6 hhcurveto
            24 hlineto
            8 1 5 6 -4 hvcurveto
            return
          </CharString>
          <CharString index="164">
            41 callsubr
            1 -4 7 113 callsubr
            return
          </CharString>
          <CharString index="165">
            vlineto
            88 -55 54 -86 vhcurveto
            -86 -46 callsubr
            return
          </CharString>
          <CharString index="166">
            -94 callgsubr
            74 -21 callsubr
            -65 hmoveto
            635 callgsubr
            -71 -38 0 callsubr
            endchar
          </CharString>
          <CharString index="167">
            hlineto
            62 33 -36 -63 hvcurveto
            -355 92 callgsubr
            return
          </CharString>
          <CharString index="168">
            hlineto
            -77 callgsubr
            return
          </CharString>
          <CharString index="169">
            rmoveto
            563 callsubr
            -32 -36 -62 vhcurveto
            -115 hlineto
            -42 -29 17 30 -14 hvcurveto
            294 409 rlineto
            -304 -357 rmoveto
            355 462 callsubr
            115 hlineto
            42 29 -17 -30 13 hvcurveto
            -294 -410 rlineto
            369 494 rmoveto
            -6 4 -6 -1 -5 -7 -26 -36 rcurveline
            31 -24 -39 17 -48 hhcurveto
            -125 152 callgsubr
            -359 vlineto
            -21 3 -19 6 -17 vhcurveto
            -37 -52 -5 -7 1 -6 5 -4 rlinecurve
            12 -8 6 -4 6 1 5 6 rlinecurve
            27 37 rlineto
            -31 24 38 -17 49 hhcurveto
            125 hlineto
            85 359 callgsubr
            359 vlineto
            22 -3 19 -6 17 vhcurveto
            36 51 5 7 0 5 -6 5 rlinecurve
            endchar
          </CharString>
          <CharString index="170">
            -8 -3 -3 -8 533 callsubr
            -4 8 vhcurveto
            30 151 callsubr
            34 169 callsubr
            return
          </CharString>
          <CharString index="171">
            52 348 callsubr
            -84 hlineto
            -57 -23 16 52 hvcurveto
            13 68 callgsubr
            return
          </CharString>
          <CharString index="172">
            rlineto
            -11 -8 -5 -5 -7 vvcurveto
            -6 324 callsubr
            11 7 5 6 6 hvcurveto
            return
          </CharString>
          <CharString index="173">
            rmoveto
            160 -95 callsubr
            -376 vlineto
            -9 4 -3 7 vhcurveto
            25 hlineto
            8 -99 callsubr
            560 48 callsubr
            -1039 -94 callgsubr
            888 -95 callsubr
            -121 545 callsubr
            -311 hlineto
            -9 52 callgsubr
            -22 17 callsubr
            55 hlineto
            49 40 -21 -73 hvcurveto
            -94 vlineto
            -71 640 callsubr
            -133 626 callgsubr
            141 hlineto
            77 52 42 94 hvcurveto
            99 vlineto
            42 192 callgsubr
            return
          </CharString>
          <CharString index="174">
            -69 callsubr
            33 vlineto
            9 return
          </CharString>
          <CharString index="175">
            276 373 589 rmoveto
            4 -370 -207 hlineto
            -128 -219 rmoveto
            7 4 3 9 5 hvcurveto
            89 160 rlineto
            230 -160 hlineto
            -9 4 -3 7 vhcurveto
            309 hlineto
            9 2 4 7 147 callgsubr
            -260 255 callsubr
            242 35 callgsubr
            232 94 callsubr
            -232 255 callsubr
            230 35 callgsubr
            260 hlineto
            9 2 4 7 147 callgsubr
            -338 hlineto
            -8 -5 -3 -9 -5 hvcurveto
            -339 -619 rlineto
            -8 -3 2 -4 7 hhcurveto
            return
          </CharString>
          <CharString index="176">
            163 callsubr
            -100 vlineto
            -6 -3 -3 -7 vhcurveto
            -125 hlineto
            -80 455 callgsubr
            return
          </CharString>
          <CharString index="177">
            436 callsubr
            17 vlineto
            6 -58 callgsubr
            -202 hlineto
            -9 -3 -4 -6 hvcurveto
            -17 462 callgsubr
          </CharString>
          <CharString index="178">
            rmoveto
            -63 -32 -36 -62 vhcurveto
            -77 hlineto
            -46 -30 20 36 -12 hvcurveto
            259 260 rlineto
            -266 5 rmoveto
            63 33 36 62 vhcurveto
            77 hlineto
            46 30 -20 -36 12 hvcurveto
            -260 -260 rlineto
            352 337 rmoveto
            -4 4 -6 1 -6 -6 -38 -38 rcurveline
            40 -23 -43 23 -56 hhcurveto
            -85 467 callsubr
            -226 vlineto
            -14 1 -13 3 -12 vhcurveto
            -51 -51 -5 -7 0 -4 6 -5 rlinecurve
            11 -11 4 -5 5 -1 7 6 rlinecurve
            38 38 rlineto
            -40 23 43 -23 56 hhcurveto
            85 325 callgsubr
            226 vlineto
            14 -1 13 -3 13 vhcurveto
            50 50 6 7 0 4 -5 5 rlinecurve
            endchar
          </CharString>
          <CharString index="179">
            hlineto
            -85 callsubr
            return
          </CharString>
          <CharString index="180">
            78 callgsubr
            -107 vlineto
            return
          </CharString>
          <CharString index="181">
            -4 110 callsubr
            return
          </CharString>
          <CharString index="182">
            82 callsubr
            -679 347 callgsubr
            return
          </CharString>
          <CharString index="183">
            -107 callgsubr
            133 33 callsubr
            return
          </CharString>
          <CharString index="184">
            569 callgsubr
            167 -249 rlineto
            -6 3 4 74 callsubr
            454 callsubr
            2 hvcurveto
            -177 266 rlineto
            return
          </CharString>
          <CharString index="185">
            466 291 callsubr
            37 hlineto
            56 24 -26 -57 hvcurveto
            -90 vlineto
            -64 -33 -35 -64 665 callsubr
            -63 -25 27 62 hvcurveto
            10 vlineto
            57 25 29 59 vhcurveto
            39 -63 callsubr
            -41 hlineto
            -54 -28 28 55 hvcurveto
            29 vlineto
            59 23 29 57 vhcurveto
            215 -96 callsubr
            -90 vlineto
            -8 -1 -7 -2 -6 vhcurveto
            3 -13 -14 2 -16 hhcurveto
            -142 -520 rmoveto
            -64 -25 28 61 42 21 31 55 hvcurveto
            136 hlineto
            25 23 5 9 19 hvcurveto
            -77 vlineto
            -61 -32 -38 -65 vhcurveto
            return
          </CharString>
          <CharString index="186">
            41 callsubr
            2 -4 return
          </CharString>
          <CharString index="187">
            rmoveto
            15 callsubr
            return
          </CharString>
          <CharString index="188">
            -86 callsubr
            106 vlineto
            440 callgsubr
            -28 hlineto
            -7 return
          </CharString>
          <CharString index="189">
            -89 callsubr
            679 vlineto
            -77 callgsubr
            return
          </CharString>
          <CharString index="190">
            hlineto
            88 callsubr
          </CharString>
          <CharString index="191">
            rmoveto
            88 callsubr
          </CharString>
          <CharString index="192">
            495 callgsubr
            2 -3 -6 hvcurveto
            return
          </CharString>
          <CharString index="193">
            -2 -4 233 callsubr
            3 7 hvcurveto
            return
          </CharString>
          <CharString index="194">
            271 callsubr
            17 hvcurveto
            return
          </CharString>
          <CharString index="195">
            -107 callgsubr
            84 -95 callsubr
            -392 vlineto
            -89 56 -60 91 vhcurveto
            178 388 callgsubr
            5 -9 vhcurveto
            -172 hlineto
            -69 -37 39 66 hvcurveto
            391 vlineto
            6 3 428 callgsubr
            -149 vlineto
            -74 -39 -20 -50 vhcurveto
            -40 hlineto
            -48 callsubr
            43 hlineto
            79 55 41 97 hvcurveto
            149 vlineto
            6 185 callsubr
            62 -51 callgsubr
            endchar
          </CharString>
          <CharString index="196">
            vlineto
            6 2 3 441 callsubr
            return
          </CharString>
          <CharString index="197">
            209 callsubr
            -8 -94 callgsubr
            8 hlineto
            return
          </CharString>
          <CharString index="198">
            8 callsubr
            -163 -106 8 callsubr
            endchar
          </CharString>
          <CharString index="199">
            vlineto
            152 callsubr
            return
          </CharString>
          <CharString index="200">
            rmoveto
            5 6 4 5 6 vvcurveto
            4 -2 2 -4 3 vhcurveto
            -10 8 rlineto
            3 -3 656 callsubr
            -6 -5 -4 hvcurveto
            -31 -25 -25 -24 -42 hhcurveto
            -4 hlineto
            -81 callgsubr
            -81 44 -51 79 vhcurveto
            8 hlineto
            17 11 5 0 hvcurveto
            -4 vlineto
            0 -32 -30 -35 -43 164 callgsubr
            7 hvcurveto
            return
          </CharString>
          <CharString index="201">
            hlineto
            8 3 4 370 callsubr
            return
          </CharString>
          <CharString index="202">
            hlineto
            63 30 25 callgsubr
            return
          </CharString>
          <CharString index="203">
            hlineto
            57 23 -17 -52 hvcurveto
            -45 vlineto
            -52 -23 -19 -57 vhcurveto
            -88 hlineto
            -57 -22 281 callgsubr
            94 hlineto
            80 489 callgsubr
            52 vlineto
            74 -45 33 -80 vhcurveto
            -84 hlineto
            return
          </CharString>
          <CharString index="204">
            -64 -33 -40 -55 297 callgsubr
            hvcurveto
            -3 callsubr
            return
          </CharString>
          <CharString index="205">
            524 callgsubr
            -40 42 71 hvcurveto
            return
          </CharString>
          <CharString index="206">
            54 40 96 342 callgsubr
            5 2 4 6 vhcurveto
            return
          </CharString>
          <CharString index="207">
            vlineto
            9 -4 3 -8 vhcurveto
            return
          </CharString>
          <CharString index="208">
            691 callsubr
            53 39 95 hvcurveto
            53 vlineto
            80 -51 36 -71 -72 -47 -38 -75 vhcurveto
            -46 vlineto
            86 callgsubr
            43 vlineto
            52 28 21 46 46 28 -21 -52 vhcurveto
            -52 vlineto
            -68 -35 -23 -53 vhcurveto
            -301 hlineto
            -63 -34 -40 -55 -21 562 callgsubr
            -10 3 6 -4 9 688 callgsubr
            3 6 4 -1 4 -3 8 hvcurveto
            -5 17 -5 18 18 vvcurveto
            35 19 22 41 vhcurveto
            157 -62 hlineto
            681 callsubr
            return
          </CharString>
          <CharString index="209">
            153 callgsubr
            115 442 callgsubr
            -11 -28 -42 vvcurveto
            return
          </CharString>
          <CharString index="210">
            -69 -41 682 callsubr
            -73 -40 42 71 hvcurveto
            91 20 vlineto
            79 50 -44 callsubr
            return
          </CharString>
          <CharString index="211">
            0 -40 -33 -52 -57 vhcurveto
            -87 -94 168 callsubr
            -4 3 -5 7 vhcurveto
            return
          </CharString>
          <CharString index="212">
            33 74 373 callsubr
            -17 284 callsubr
            -10 vlineto
            -56 return
          </CharString>
          <CharString index="213">
            vlineto
            -35 callsubr
            return
          </CharString>
          <CharString index="214">
            133 callsubr
            7 2 350 callsubr
          </CharString>
          <CharString index="215">
            669 callgsubr
            50 vlineto
            114 34 37 50 vhcurveto
            23 hlineto
            9 3 4 252 callsubr
            -24 hlineto
            -68 -40 -58 -122 -2 hvcurveto
            -5 167 hlineto
            331 callgsubr
            -4 -3 -8 hvcurveto
            -37 vlineto
            2 -95 39 -73 7 -16 -3 -1 rcurveline
            -144 222 rlineto
            8 -4 -5 3 -11 hhcurveto
            -23 hlineto
            -6 118 callsubr
            61 -90 54 -78 44 -50 28 -31 rlinecurve
            52 hlineto
            return
          </CharString>
          <CharString index="216">
            vlineto
            -73 -39 -22 -51 vhcurveto
            -100 -45 callgsubr
            101 hlineto
            77 return
          </CharString>
          <CharString index="217">
            8 hhcurveto
            26 122 callgsubr
            return
          </CharString>
          <CharString index="218">
            9 2 3 8 147 callgsubr
            return
          </CharString>
          <CharString index="219">
            hlineto
            -7 -2 99 callgsubr
            10 hhcurveto
            return
          </CharString>
          <CharString index="220">
            hhcurveto
            20 hlineto
            6 6 165 callgsubr
            return
          </CharString>
          <CharString index="221">
            hvcurveto
            9 472 callsubr
            -10 vlineto
            -74 32 -34 58 -9 vhcurveto
            -77 vlineto
            -73 -38 -22 -51 544 callsubr
            -22 469 callgsubr
            18 hlineto
            79 54 42 97 hvcurveto
            76 133 vlineto
            10 -300 hlineto
            -9 4 -3 7 vhcurveto
            25 hlineto
            8 -99 callsubr
            308 vlineto
            44 15 23 34 54 vvcurveto
            45 vlineto
            74 -44 33 -81 vhcurveto
            -138 hlineto
            -57 -23 16 51 52 23 16 57 hvcurveto
            return
          </CharString>
          <CharString index="222">
            -60 -34 -36 -64 -48 callgsubr
            3 -46 callgsubr
            -4 callsubr
            vhcurveto
            -53 hlineto
            return
          </CharString>
          <CharString index="223">
            529 callsubr
            3 3 204 callgsubr
            return
          </CharString>
          <CharString index="224">
            581 rmoveto
            -107 callsubr
            return
          </CharString>
          <CharString index="225">
            -4 339 callsubr
            2 -3 hvcurveto
            return
          </CharString>
          <CharString index="226">
            hlineto
            -52 -45 21 74 hvcurveto
            return
          </CharString>
          <CharString index="227">
            rmoveto
            8 283 callsubr
            -8 hvcurveto
            -218 588 callgsubr
            return
          </CharString>
          <CharString index="228">
            -7 -3 3 6 51 -36 23 -48 24 hvcurveto
            -68 35 rlineto
            -34 18 -26 14 52 vvcurveto
            12 vlineto
            8 490 callgsubr
            -25 hlineto
            -8 -3 -3 -8 hvcurveto
            -14 vlineto
            -58 23 -31 55 -28 vhcurveto
            64 -33 rlineto
            61 -32 8 -12 -21 vvcurveto
            return
          </CharString>
          <CharString index="229">
            382 callsubr
            -8 vhcurveto
            return
          </CharString>
          <CharString index="230">
            rmoveto
            -43 25 -32 36 366 callsubr
            -58 -37 vhcurveto
            232 261 270 callgsubr
            -362 vlineto
            -168 100 rlineto
            47 32 39 46 78 vvcurveto
            93 -47 38 -87 -92 -44 -38 -91 -81 45 -46 54 -33 vhcurveto
            0 vlineto
            -139 -88 rlineto
            -5 -3 -3 -2 -4 vvcurveto
            -2 2 -3 1 -2 vhcurveto
            15 -18 rlineto
            -3 3 3 -1 4 hhcurveto
            3 4 2 2 4 hvcurveto
            151 96 return
          </CharString>
          <CharString index="231">
            -1 callgsubr
            -134 hlineto
            return
          </CharString>
          <CharString index="232">
            hlineto
            3 callsubr
            return
          </CharString>
          <CharString index="233">
            vhcurveto
            -214 220 445 callsubr
            8 30 hhcurveto
            return
          </CharString>
          <CharString index="234">
            vlineto
            174 callgsubr
            return
          </CharString>
          <CharString index="235">
            vlineto
            142 callgsubr
            return
          </CharString>
          <CharString index="236">
            -94 callgsubr
            334 556 callsubr
            -36 8 -26 19 -18 vhcurveto
            -182 hlineto
            -64 -33 -39 -56 -21 562 callgsubr
            -10 3 6 -4 9 629 callsubr
            594 callsubr
            17 -5 18 18 vvcurveto
            35 18 22 41 vhcurveto
            173 hlineto
            -19 -19 -9 -27 -38 vvcurveto
            -41 vlineto
            -86 51 -45 85 vhcurveto
            110 hlineto
            return
          </CharString>
          <CharString index="237">
            350 418 829 400 callsubr
            33 169 callsubr
            -26 474 callgsubr
            51 -145 rmoveto
            80 39 40 83 hvcurveto
            6 vlineto
            10 -4 4 -8 vhcurveto
            -21 hlineto
            -7 -5 -3 -10 hvcurveto
            -7 vlineto
            -59 -20 -22 -59 vhcurveto
            -67 hlineto
            -59 -20 22 59 hvcurveto
            7 vlineto
            10 673 callsubr
            -6 vlineto
            -83 39 -40 80 vhcurveto
            return
          </CharString>
          <CharString index="238">
            -34 35 63 hvcurveto
            103 -6 callgsubr
            49 -2 callgsubr
            return
          </CharString>
          <CharString index="239">
            -25 -70 vhcurveto
            -89 vlineto
            return
          </CharString>
          <CharString index="240">
            54 callsubr
            54 533 callgsubr
            2 4 -1 6 hhcurveto
            24 hlineto
            return
          </CharString>
          <CharString index="241" raw="1">
            33c256e2 1ef7240a 0b 
          </CharString>
          <CharString index="242">
            17 62 hvcurveto
            8 vlineto
            10 -4 4 -7 vhcurveto
            -24 398 callsubr
            -8 vlineto
            -89 return
          </CharString>
          <CharString index="243">
            244 callsubr
            58 hlineto
            50 39 -21 -73 hvcurveto
            return
          </CharString>
          <CharString index="244">
            vhcurveto
            24 hlineto
            8 -99 callsubr
            return
          </CharString>
          <CharString index="245">
            682 callsubr
            -73 180 callsubr
            return
          </CharString>
          <CharString index="246">
            87 callsubr
            150 vlineto
            6 return
          </CharString>
          <CharString index="247">
            257 callsubr
            5 -3 5 -7 hhcurveto
            return
          </CharString>
          <CharString index="248" raw="1">
            f70e1d8f 0b  
          </CharString>
          <CharString index="249">
            7 hvcurveto
            23 vlineto
            7 return
          </CharString>
          <CharString index="250">
            389 callsubr
            8 -99 callsubr
            return
          </CharString>
          <CharString index="251" raw="1">
            5c1d928f 8e941ff7 e0b81daf 06caf7f3
            1d25074b 69684c1e 5d065b0a bc06e2c2
            c0e3f877 1d54c034 1ef7841d 7d1f870b
          </CharString>
          <CharString index="252">
            39 vlineto
            10 -4 3 -7 329 callsubr
            -38 vlineto
            -64 -36 -36 -63 vhcurveto
            -82 hlineto
            -64 -35 37 64 hvcurveto
            64 vlineto
            64 29 36 63 vhcurveto
            148 hlineto
            42 20 23 35 hvcurveto
            return
          </CharString>
          <CharString index="253">
            42 -20 -44 22 -56 11 callsubr
            return
          </CharString>
          <CharString index="254">
            5 -1 3 -3 return
          </CharString>
          <CharString index="255">
            264 callgsubr
            633 callsubr
            -65 hlineto
            494 callsubr
            endchar
          </CharString>
          <CharString index="256">
            97 callgsubr
            -87 52 -56 return
          </CharString>
          <CharString index="257">
            rmoveto
            -14 callgsubr
            return
          </CharString>
          <CharString index="258">
            hlineto
            7 192 callsubr
            return
          </CharString>
          <CharString index="259">
            7 155 callgsubr
            return
          </CharString>
          <CharString index="260">
            231 callgsubr
            233 61 callsubr
            -679 347 callgsubr
            return
          </CharString>
          <CharString index="261">
            -25 callsubr
            85 -106 callgsubr
            endchar
          </CharString>
          <CharString index="262">
            102 callgsubr
            112 -7 callgsubr
          </CharString>
          <CharString index="263">
            358 callsubr
            246 -19 callgsubr
            -246 vlineto
            -61 -33 -37 -64 vhcurveto
            return
          </CharString>
          <CharString index="264">
            vhcurveto
            -29 hlineto
            24 callgsubr
            return
          </CharString>
          <CharString index="265">
            218 callsubr
            vhcurveto
            return
          </CharString>
          <CharString index="266">
            rmoveto
            -64 callsubr
            endchar
          </CharString>
          <CharString index="267">
            65 callsubr
            216 536 callgsubr
            return
          </CharString>
          <CharString index="268">
            70 hlineto
            565 callgsubr
            17 hvcurveto
            -89 callgsubr
            return
          </CharString>
          <CharString index="269">
            90 callsubr
            43 31 -21 -56 hvcurveto
            return
          </CharString>
          <CharString index="270">
            -98 callgsubr
            329 -96 callsubr
            return
          </CharString>
          <CharString index="271">
            vhcurveto
            62 -2 callgsubr
            return
          </CharString>
          <CharString index="272">
            rlineto
            -3 -3 -1 470 callgsubr
            604 callsubr
            return
          </CharString>
          <CharString index="273">
            254 callsubr
            -50 43 return
          </CharString>
          <CharString index="274">
            19 -51 callsubr
            return
          </CharString>
          <CharString index="275">
            rlineto
            -3 -3 -1 -3 -3 vvcurveto
            return
          </CharString>
          <CharString index="276">
            vlineto
            262 callsubr
            return
          </CharString>
          <CharString index="277">
            rmoveto
            9 3 4 8 -24 callgsubr
            -290 244 callsubr
            58 500 callgsubr
            -34 -24 -55 vhcurveto
            -100 626 callgsubr
            108 hlineto
            77 52 623 callgsubr
            return
          </CharString>
          <CharString index="278">
            rmoveto
            9 3 4 8 -24 callgsubr
            484 callgsubr
            -64 vlineto
            -71 -34 -24 -54 vhcurveto
            -100 -45 callgsubr
            107 hlineto
            77 52 42 95 hvcurveto
            68 vlineto
            42 588 callsubr
            return
          </CharString>
          <CharString index="279">
            -26 -60 hvcurveto
            -12 vlineto
            268 callgsubr
            return
          </CharString>
          <CharString index="280">
            87 callsubr
            103 vlineto
            6 185 callsubr
            return
          </CharString>
          <CharString index="281">
            vlineto
            -88 54 -54 return
          </CharString>
          <CharString index="282">
            -98 60 -41 79 vhcurveto
            20 hlineto
            8 4 4 7 hvcurveto
            21 465 callsubr
            -14 119 callsubr
            return
          </CharString>
          <CharString index="283">
            vlineto
            8 -4 4 return
          </CharString>
          <CharString index="284">
            hlineto
            -66 callgsubr
            return
          </CharString>
          <CharString index="285">
            hlineto
            8 254 callsubr
            -51 566 callgsubr
          </CharString>
          <CharString index="286">
            32 17 hvcurveto
            4 return
          </CharString>
          <CharString index="287">
            -40 42 71 hvcurveto
            91 20 vlineto
            265 callsubr
            return
          </CharString>
          <CharString index="288">
            hlineto
            -62 461 callgsubr
            8 vhcurveto
            return
          </CharString>
          <CharString index="289">
            -4 285 callgsubr
            4 -4 return
          </CharString>
          <CharString index="290">
            -4 257 callgsubr
            return
          </CharString>
          <CharString index="291">
            79 callsubr
            7 hhcurveto
            19 hlineto
            7 289 callsubr
          </CharString>
          <CharString index="292">
            3 -25 callsubr
            return
          </CharString>
          <CharString index="293">
            177 callsubr
            218 366 callgsubr
            -94 286 291 callsubr
            94 -106 callgsubr
            endchar
          </CharString>
          <CharString index="294">
            rmoveto
            -9 4 -2 584 callsubr
            218 vlineto
            7 -4 2 -4 -4 -3 -2 -5 -1 vhcurveto
            -26 -91 rlineto
            -6 -25 -5 -15 -20 vvcurveto
            return
          </CharString>
          <CharString index="295">
            239 callgsubr
            36 90 hvcurveto
            15 252 callgsubr
            return
          </CharString>
          <CharString index="296">
            -9 4 -3 7 vhcurveto
            26 506 callgsubr
            99 vlineto
            6 185 callsubr
            return
          </CharString>
          <CharString index="297">
            -6 247 callgsubr
            return
          </CharString>
          <CharString index="298">
            hlineto
            8 6 4 5 5 hvcurveto
            return
          </CharString>
          <CharString index="299">
            4 14 callgsubr
            return
          </CharString>
          <CharString index="300">
            6 -5 9 548 callgsubr
            5 5 581 callsubr
            217 callsubr
            103 hlineto
            42 13 -13 -36 hvcurveto
            -12 -59 callgsubr
            -153 258 rlineto
            return
          </CharString>
          <CharString index="301">
            363 callgsubr
            -33 vlineto
            -55 -28 -26 -56 vhcurveto
            -71 hlineto
            -63 -34 36 63 hvcurveto
            89 123 callgsubr
            164 hlineto
            13 418 callsubr
            128 35 callgsubr
            83 -106 callgsubr
            endchar
          </CharString>
          <CharString index="302">
            -35 -63 vhcurveto
            -46 hlineto
            -48 callsubr
            50 511 callgsubr
            88 hvcurveto
            return
          </CharString>
          <CharString index="303">
            540 callsubr
            -33 250 callsubr
            return
          </CharString>
          <CharString index="304">
            29 -16 -30 234 callgsubr
            return
          </CharString>
          <CharString index="305">
            -23 -17 -16 -27 -44 vvcurveto
            -84 47 -45 84 vhcurveto
            104 hlineto
            85 54 56 87 hvcurveto
            115 vlineto
            19 26 11 34 40 vvcurveto
            80 vlineto
            49 -14 34 -28 20 vhcurveto
            7 9 5 14 17 vvcurveto
            89 vlineto
            5 185 callsubr
            95 201 callsubr
          </CharString>
          <CharString index="306">
            hlineto
            -9 -3 -4 -8 return
          </CharString>
          <CharString index="307">
            hhcurveto
            -43 hlineto
            -87 -55 -42 -89 hvcurveto
            -59 243 callsubr
            57 vlineto
            64 34 24 63 vhcurveto
            45 hlineto
            63 35 -25 -63 hvcurveto
            -83 420 callsubr
            return
          </CharString>
          <CharString index="308">
            hlineto
            9 1 3 3 8 vvcurveto
            167 callsubr
            endchar
          </CharString>
          <CharString index="309">
            -227 vlineto
            -9 4 -3 7 vhcurveto
            26 506 callgsubr
            560 vlineto
            6 185 callsubr
            return
          </CharString>
          <CharString index="310">
            438 callsubr
            -34 vlineto
            -8 4 -3 584 callsubr
            34 vlineto
            9 return
          </CharString>
          <CharString index="311">
            -6 13 40 hvcurveto
            33 vlineto
            7 -3 2 -5 vhcurveto
            -14 441 callgsubr
            -7 hvcurveto
            return
          </CharString>
          <CharString index="312">
            225 callgsubr
            42 71 hvcurveto
            return
          </CharString>
          <CharString index="313">
            18 268 callsubr
            -20 -34 -55 vvcurveto
            return
          </CharString>
          <CharString index="314">
            -5 197 callgsubr
            return
          </CharString>
          <CharString index="315">
            35 callgsubr
            296 hlineto
            return
          </CharString>
          <CharString index="316">
            vlineto
            77 -45 41 -77 vhcurveto
            return
          </CharString>
          <CharString index="317">
            -68 -36 -20 -45 vhcurveto
            return
          </CharString>
          <CharString index="318">
            402 callsubr
            -9 return
          </CharString>
          <CharString index="319">
            -4 -3 -8 hvcurveto
            return
          </CharString>
          <CharString index="320">
            rmoveto
            -13 -4 251 callgsubr
            -4 3 -9 hhcurveto
            -27 hlineto
            -6 118 callsubr
            61 -90 return
          </CharString>
          <CharString index="321">
            317 callsubr
            -12 -9 241 callsubr
            -39 vlineto
            -52 13 -26 47 666 callgsubr
            17 vhcurveto
            endchar
          </CharString>
          <CharString index="322">
            rmoveto
            51 callgsubr
            51 554 callgsubr
            return
          </CharString>
          <CharString index="323">
            398 callsubr
            -7 vlineto
            -82 39 -40 return
          </CharString>
          <CharString index="324">
            18 vvcurveto
            35 18 23 41 vhcurveto
            return
          </CharString>
          <CharString index="325">
            vlineto
            7 -2 4 -9 return
          </CharString>
          <CharString index="326">
            vhcurveto
            140 -6 rlineto
            636 callsubr
            26 vlineto
            7 -3 4 -8 -1 vhcurveto
            -140 -7 7 166 rlineto
            9 -4 3 -7 vhcurveto
            -28 hlineto
            -7 -5 -3 -9 1 hvcurveto
            7 -166 -139 7 rlineto
            -9 1 -2 -4 -7 vvcurveto
            -26 401 callgsubr
            return
          </CharString>
          <CharString index="327">
            506 callgsubr
            619 vlineto
            9 -4 3 -7 vhcurveto
            return
          </CharString>
          <CharString index="328">
            hlineto
            14 callsubr
            return
          </CharString>
          <CharString index="329">
            670 callsubr
            endchar
          </CharString>
          <CharString index="330">
            128 21 rmoveto
            -7 -3 -4 -8 533 callsubr
            -4 7 vhcurveto
            31 151 callsubr
            34 176 callsubr
            -7 vhcurveto
            return
          </CharString>
          <CharString index="331">
            2 -9 hhcurveto
            -22 hlineto
            -9 118 callgsubr
            1 -5 8 hhcurveto
            return
          </CharString>
          <CharString index="332">
            -9 253 callgsubr
            9 vhcurveto
            return
          </CharString>
          <CharString index="333">
            vhcurveto
            29 191 callsubr
            return
          </CharString>
          <CharString index="334">
            -34 49 callgsubr
            return
          </CharString>
          <CharString index="335">
            vlineto
            219 callgsubr
            return
          </CharString>
          <CharString index="336">
            7 vhcurveto
            29 hlineto
            7 return
          </CharString>
          <CharString index="337">
            -7 212 callsubr
            return
          </CharString>
          <CharString index="338">
            rmoveto
            -3 -3 665 callgsubr
            -5 4 427 callsubr
            3 4 163 167 12 15 rrcurveto
            5 5 4 5 7 vvcurveto
            3 -1 3 -4 4 vhcurveto
            -8 7 rlineto
            3 -3 -3 2 -3 hhcurveto
            -5 -3 -3 -5 -5 hvcurveto
            return
          </CharString>
          <CharString index="339">
            499 callsubr
            42 71 hvcurveto
            91 20 vlineto
            79 50 37 89 hvcurveto
            15 137 callgsubr
            return
          </CharString>
          <CharString index="340">
            -8 564 callgsubr
            -6 -3 return
          </CharString>
          <CharString index="341">
            26 callsubr
            -619 vlineto
            -9 return
          </CharString>
          <CharString index="342">
            -59 482 callsubr
            return
          </CharString>
          <CharString index="343">
            -74 31 -33 63 vhcurveto
            10 hlineto
            63 32 279 callsubr
            return
          </CharString>
          <CharString index="344">
            rmoveto
            -8 82 callgsubr
            8 hvcurveto
            99 473 callsubr
            endchar
          </CharString>
          <CharString index="345">
            -43 rmoveto
            8 -4 300 callsubr
            return
          </CharString>
          <CharString index="346">
            hlineto
            170 callgsubr
            return
          </CharString>
          <CharString index="347">
            hlineto
            -84 -45 -35 -76 hvcurveto
            -8 vlineto
            -44 18 -29 33 -15 vhcurveto
            -4 vlineto
            -34 -15 -17 -30 -42 vvcurveto
            -12 vlineto
            -79 45 -35 84 vhcurveto
            76 hlineto
            50 76 15 107 hvcurveto
            1 vlineto
            -1 8 8 -1 9 hhcurveto
            70 hlineto
            586 callgsubr
            return
          </CharString>
          <CharString index="348">
            -40 -16 vhcurveto
            -40 -15 -5 -9 -16 hhcurveto
            -24 204 callsubr
            return
          </CharString>
          <CharString index="349">
            hlineto
            -7 294 callgsubr
            return
          </CharString>
          <CharString index="350">
            vlineto
            -8 371 callgsubr
            8 hvcurveto
            return
          </CharString>
          <CharString index="351">
            hlineto
            -9 371 callsubr
            9 vhcurveto
            return
          </CharString>
          <CharString index="352">
            vvcurveto
            13 vlineto
            9 -4 4 -8 228 callgsubr
            -9 hvcurveto
            -12 vlineto
            -65 -34 -34 -63 vhcurveto
            -82 604 callgsubr
            64 hvcurveto
            52 169 callgsubr
            145 660 callsubr
            115 35 callgsubr
            return
          </CharString>
          <CharString index="353">
            87 callsubr
            118 vlineto
            6 return
          </CharString>
          <CharString index="354">
            4 6 5 -1 3 357 callsubr
            return
          </CharString>
          <CharString index="355">
            -107 callgsubr
            344 -1 callgsubr
            return
          </CharString>
          <CharString index="356">
            hlineto
            266 callsubr
            return
          </CharString>
          <CharString index="357">
            vlineto
            -52 206 callsubr
            return
          </CharString>
          <CharString index="358">
            468 callgsubr
            37 hlineto
            56 24 -27 return
          </CharString>
          <CharString index="359">
            7 269 callsubr
            return
          </CharString>
          <CharString index="360">
            602 callsubr
            15 18 vvcurveto
            return
          </CharString>
          <CharString index="361">
            4 323 callsubr
            return
          </CharString>
          <CharString index="362">
            hlineto
            -7 50 callgsubr
            return
          </CharString>
          <CharString index="363">
            hlineto
            7 4 4 5 3 return
          </CharString>
          <CharString index="364">
            109 rlineto
            6 return
          </CharString>
          <CharString index="365">
            vvcurveto
            93 -47 38 -87 -92 -44 -38 -91 -81 46 -45 53 -34 vhcurveto
            -132 -82 rlineto
            -5 -3 -2 -3 -3 vvcurveto
            -3 1 -2 2 -3 vhcurveto
            15 -17 rlineto
            -3 3 3 -2 4 hhcurveto
            3 4 2 2 3 hvcurveto
            142 90 return
          </CharString>
          <CharString index="366">
            503 callgsubr
            18 3 15 5 13 vhcurveto
            220 -225 rlineto
            -23 -16 -27 -12 -37 hhcurveto
            return
          </CharString>
          <CharString index="367">
            -95 callsubr
            -340 vlineto
            385 callsubr
            return
          </CharString>
          <CharString index="368">
            253 callsubr
            endchar
          </CharString>
          <CharString index="369">
            8 -4 3 -7 vhcurveto
            return
          </CharString>
          <CharString index="370">
            -3 3 6 hvcurveto
            return
          </CharString>
          <CharString index="371">
            -107 callgsubr
            110 199 callgsubr
            return
          </CharString>
          <CharString index="372">
            80 49 301 callsubr
            return
          </CharString>
          <CharString index="373">
            9 6 2 7 5 hvcurveto
            63 257 callsubr
            4 -1 453 callsubr
            return
          </CharString>
          <CharString index="374">
            -69 -23 36 62 62 23 35 69 69 23 -35 -62 return
          </CharString>
          <CharString index="375">
            -32 378 callsubr
            -15 return
          </CharString>
          <CharString index="376">
            hvcurveto
            167 callsubr
            return
          </CharString>
          <CharString index="377">
            7 vhcurveto
            24 hlineto
            7 4 return
          </CharString>
          <CharString index="378">
            hlineto
            14 11 9 return
          </CharString>
          <CharString index="379">
            53 77 -29 58 hhcurveto
            28 29 5 10 23 hvcurveto
            13 5 5 5 9 vvcurveto
            -75 callsubr
            -3 4 -6 vhcurveto
            -11 -34 -22 -43 -57 -71 29 -60 hhcurveto
            -28 -29 -5 -10 -22 hvcurveto
            -14 -5 -5 -5 -9 vvcurveto
            -19 vlineto
            return
          </CharString>
          <CharString index="380">
            -91 59 -65 429 callgsubr
            return
          </CharString>
          <CharString index="381">
            -96 callsubr
            -188 -30 callsubr
            return
          </CharString>
          <CharString index="382">
            rmoveto
            8 -4 -6 3 -8 hhcurveto
            return
          </CharString>
          <CharString index="383">
            rlineto
            -6 4 5 return
          </CharString>
          <CharString index="384">
            43 hlineto
            49 32 14 31 17 hvcurveto
            4 -207 hlineto
            -9 4 -3 7 537 callgsubr
            10 2 4 8 133 callgsubr
            -10 vhcurveto
            return
          </CharString>
          <CharString index="385">
            -59 callgsubr
            -153 258 rlineto
            348 hlineto
            636 callgsubr
            21 vlineto
            8 -3 3 -10 vhcurveto
            return
          </CharString>
          <CharString index="386">
            69 callgsubr
            -6 vhcurveto
            -18 284 callsubr
            return
          </CharString>
          <CharString index="387">
            255 callgsubr
            42 -106 callgsubr
            -241 -94 callgsubr
            110 540 callsubr
            return
          </CharString>
          <CharString index="388">
            hvcurveto
            -62 -106 rlineto
            -8 -4 361 callsubr
            return
          </CharString>
          <CharString index="389">
            -96 callsubr
            -123 -30 callsubr
            -113 hlineto
            return
          </CharString>
          <CharString index="390">
            -4 3 -7 596 callsubr
            return
          </CharString>
          <CharString index="391">
            441 callgsubr
            -8 hvcurveto
            return
          </CharString>
          <CharString index="392">
            230 rmoveto
            -38 callsubr
            return
          </CharString>
          <CharString index="393">
            vlineto
            -9 4 -3 7 vhcurveto
            endchar
          </CharString>
          <CharString index="394">
            687 rmoveto
            81 39 40 83 hvcurveto
            6 vlineto
            10 -5 4 -8 vhcurveto
            -20 hlineto
            -8 448 callsubr
            return
          </CharString>
          <CharString index="395">
            33 callsubr
            -123 vlineto
            return
          </CharString>
          <CharString index="396">
            6 3 6 4 hvcurveto
            90 140 callsubr
            endchar
          </CharString>
          <CharString index="397">
            rmoveto
            -9 4 -3 7 vhcurveto
            26 506 callgsubr
            return
          </CharString>
          <CharString index="398">
            rmoveto
            225 callsubr
            return
          </CharString>
          <CharString index="399">
            500 callgsubr
            640 callsubr
            return
          </CharString>
          <CharString index="400">
            480 callsubr
            23 45 vvcurveto
            63 vlineto
            6 return
          </CharString>
          <CharString index="401">
            -96 callsubr
            -148 return
          </CharString>
          <CharString index="402">
            376 callsubr
            vlineto
            -44 return
          </CharString>
          <CharString index="403">
            6 -13 -41 hvcurveto
            -34 vlineto
            -8 return
          </CharString>
          <CharString index="404">
            -24 hlineto
            -7 -4 -4 return
          </CharString>
          <CharString index="405">
            4 hlineto
            24 15 12 479 callsubr
            185 callsubr
            return
          </CharString>
          <CharString index="406">
            -42 244 callgsubr
            41 vlineto
            return
          </CharString>
          <CharString index="407">
            3 -7 vhcurveto
            -32 hlineto
            -6 699 callsubr
            return
          </CharString>
          <CharString index="408">
            36 90 hvcurveto
            15 495 callgsubr
            return
          </CharString>
          <CharString index="409">
            vlineto
            161 callgsubr
            return
          </CharString>
          <CharString index="410">
            rmoveto
            -9 4 -3 6 vhcurveto
            return
          </CharString>
          <CharString index="411">
            -107 callgsubr
            71 -95 callsubr
            -382 vlineto
            -72 callgsubr
            4 8 vhcurveto
            return
          </CharString>
          <CharString index="412">
            rmoveto
            -61 -31 27 63 hvcurveto
            38 -43 callsubr
            32 255 callgsubr
            return
          </CharString>
          <CharString index="413">
            329 callgsubr
            -8 7 rlineto
            4 -5 -2 701 callsubr
            -5 -4 return
          </CharString>
          <CharString index="414">
            vvcurveto
            40 474 callsubr
            -39 vlineto
            -65 -34 -34 -63 vhcurveto
            return
          </CharString>
          <CharString index="415">
            -7 2 -88 callsubr
            return
          </CharString>
          <CharString index="416">
            627 callgsubr
            7 -22 hvcurveto
            -10 4 6 -5 9 hhcurveto
            20 hlineto
            7 3 4 204 callgsubr
            return
          </CharString>
          <CharString index="417">
            -57 -27 -23 -59 vhcurveto
            -68 hlineto
            -61 -24 19 52 hvcurveto
            10 vlineto
            49 22 20 59 vhcurveto
            36 -60 callgsubr
            7 -4 callsubr
            vhcurveto
            -36 hlineto
            -57 -24 19 50 hvcurveto
            return
          </CharString>
          <CharString index="418">
            55 -52 84 vhcurveto
            return
          </CharString>
          <CharString index="419">
            448 callsubr
            -22 216 callsubr
            81 vhcurveto
            return
          </CharString>
          <CharString index="420">
            87 callgsubr
            -130 hlineto
            -81 -45 -34 -75 hvcurveto
            -16 vlineto
            -76 43 -34 83 vhcurveto
            return
          </CharString>
          <CharString index="421">
            424 callgsubr
            5 vhcurveto
            -17 17 -9 16 return
          </CharString>
          <CharString index="422">
            -96 callsubr
            -58 vlineto
            -60 -27 -14 -44 vhcurveto
            -65 hlineto
            return
          </CharString>
          <CharString index="423">
            229 -98 callgsubr
            return
          </CharString>
          <CharString index="424">
            198 callgsubr
            51 -12 26 -48 -29 return
          </CharString>
          <CharString index="425">
            -7 -4 -3 546 callsubr
            -3 7 vhcurveto
            return
          </CharString>
          <CharString index="426">
            478 callsubr
            20 hlineto
            76 54 return
          </CharString>
          <CharString index="427">
            -68 -26 388 callsubr
            return
          </CharString>
          <CharString index="428">
            548 callgsubr
            6 return
          </CharString>
          <CharString index="429">
            519 callsubr
            6 3 6 return
          </CharString>
          <CharString index="430">
            -86 callsubr
            42 vlineto
            89 return
          </CharString>
          <CharString index="431">
            611 callsubr
            30 hlineto
            return
          </CharString>
          <CharString index="432">
            rlineto
            -9 2 4 -3 return
          </CharString>
          <CharString index="433">
            -86 56 -43 83 vhcurveto
            98 -4 hlineto
            0 -22 -12 -45 -35 vhcurveto
            -92 -72 rlineto
            -3 -3 -1 -2 -4 661 callgsubr
            30 hlineto
            10 7 4 5 5 hvcurveto
            2 2 return
          </CharString>
          <CharString index="434">
            390 callgsubr
            8 hhcurveto
            23 hlineto
            7 3 1 5 3 hvcurveto
            53 387 callsubr
            23 360 callsubr
          </CharString>
          <CharString index="435">
            -15 463 callgsubr
            -35 -55 vvcurveto
            return
          </CharString>
          <CharString index="436">
            vhcurveto
            -24 hlineto
            -7 705 callgsubr
            return
          </CharString>
          <CharString index="437">
            664 callsubr
            -4 1 -6 hhcurveto
            return
          </CharString>
          <CharString index="438">
            -4 -5 -3 1 return
          </CharString>
          <CharString index="439">
            3 -3 -3 2 -4 hhcurveto
            -4 -2 -1 -3 -4 hvcurveto
            -36 -30 -23 -25 -49 -1 rrcurveto
            -37 hlineto
            -52 -24 26 60 59 13 26 61 hvcurveto
            47 hlineto
            9 3 14 callgsubr
            return
          </CharString>
          <CharString index="440">
            -3 callsubr
            171 376 callgsubr
            return
          </CharString>
          <CharString index="441">
            vlineto
            6 185 callsubr
            92 hlineto
            9 4 -104 callsubr
            -4 4 -9 vhcurveto
            return
          </CharString>
          <CharString index="442">
            vlineto
            63 23 -26 -60 hvcurveto
            -12 vlineto
            320 callsubr
            return
          </CharString>
          <CharString index="443">
            rlineto
            -3 -3 -1 -4 -2 550 callsubr
            28 hlineto
            8 5 3 8 6 hvcurveto
            return
          </CharString>
          <CharString index="444">
            1 350 callsubr
          </CharString>
          <CharString index="445">
            6 -99 callsubr
            return
          </CharString>
          <CharString index="446">
            331 callsubr
            -3 return
          </CharString>
          <CharString index="447">
            -4 -8 hvcurveto
            -32 vlineto
            return
          </CharString>
          <CharString index="448">
            vlineto
            64 33 37 return
          </CharString>
          <CharString index="449">
            rmoveto
            -101 callgsubr
            return
          </CharString>
          <CharString index="450">
            -34 -37 -63 vhcurveto
            -64 hlineto
            -63 -35 37 64 hvcurveto
            60 292 callgsubr
            -61 vlineto
            -89 55 -55 88 vhcurveto
            69 hlineto
            89 54 return
          </CharString>
          <CharString index="451">
            -43 rmoveto
            8 -4 3 -7 vhcurveto
            -31 346 callgsubr
            2 614 callsubr
            return
          </CharString>
          <CharString index="452">
            rmoveto
            -8 -7 -3 -8 -3 hvcurveto
            -64 -106 rlineto
            -8 -3 458 callgsubr
          </CharString>
          <CharString index="453">
            695 callsubr
            endchar
          </CharString>
          <CharString index="454">
            hlineto
            81 489 callgsubr
            return
          </CharString>
          <CharString index="455">
            vlineto
            74 -45 33 -81 vhcurveto
            return
          </CharString>
          <CharString index="456">
            358 callgsubr
            4 return
          </CharString>
          <CharString index="457">
            5 6 -4 hvcurveto
            endchar
          </CharString>
          <CharString index="458">
            -124 vlineto
            -96 return
          </CharString>
          <CharString index="459">
            hlineto
            76 callsubr
            return
          </CharString>
          <CharString index="460">
            -497 623 vmoveto
            83 vlineto
            56 33 22 45 vhcurveto
            23 hlineto
            9 4 4 7 hvcurveto
            -75 callsubr
            -4 4 -9 vhcurveto
            -27 hlineto
            -77 -45 -41 -77 hvcurveto
            -84 vlineto
            return
          </CharString>
          <CharString index="461">
            hhcurveto
            -23 hlineto
            -8 -1 -5 -6 4 hvcurveto
            63 -109 rlineto
            -7 5 6 -2 9 hhcurveto
            return
          </CharString>
          <CharString index="462">
            -25 callsubr
            204 -95 callsubr
            return
          </CharString>
          <CharString index="463">
            372 callsubr
            -4 2 return
          </CharString>
          <CharString index="464">
            -3 9 hvcurveto
            -5 17 return
          </CharString>
          <CharString index="465">
            -33 34 64 hvcurveto
            return
          </CharString>
          <CharString index="466">
            -90 callgsubr
            339 622 callgsubr
            -136 hlineto
            -82 -46 return
          </CharString>
          <CharString index="467">
            hlineto
            8 337 callsubr
          </CharString>
          <CharString index="468">
            2 553 callsubr
            return
          </CharString>
          <CharString index="469">
            410 callgsubr
            20 hlineto
            return
          </CharString>
          <CharString index="470">
            212 callgsubr
            158 209 callsubr
            return
          </CharString>
          <CharString index="471">
            434 callgsubr
            36 284 callgsubr
            return
          </CharString>
          <CharString index="472">
            -31 -18 -14 -34 -44 vvcurveto
            -45 436 callgsubr
            return
          </CharString>
          <CharString index="473">
            60 vvcurveto
            66 26 22 62 63 23 -22 -66 -49 -22 -46 return
          </CharString>
          <CharString index="474">
            hlineto
            -80 -46 -33 -75 hvcurveto
            -6 vlineto
            -76 43 -31 83 vhcurveto
            return
          </CharString>
          <CharString index="475">
            502 callsubr
            -3 -3 -7 vhcurveto
            return
          </CharString>
          <CharString index="476">
            275 callsubr
            -45 hlineto
            return
          </CharString>
          <CharString index="477">
            7 417 callsubr
            return
          </CharString>
          <CharString index="478">
            -3 416 callsubr
            return
          </CharString>
          <CharString index="479">
            hlineto
            -44 -16 547 callsubr
            return
          </CharString>
          <CharString index="480">
            470 callsubr
            -3 2 -6 vhcurveto
            return
          </CharString>
          <CharString index="481">
            127 callsubr
            -39 hlineto
            return
          </CharString>
          <CharString index="482">
            hlineto
            326 callgsubr
            return
          </CharString>
          <CharString index="483">
            19 -33 44 -15 vhcurveto
            -4 return
          </CharString>
          <CharString index="484">
            rmoveto
            -96 callgsubr
            return
          </CharString>
          <CharString index="485">
            45 -16 573 callgsubr
            return
          </CharString>
          <CharString index="486">
            60 32 -25 -72 vhcurveto
            return
          </CharString>
          <CharString index="487">
            65 callgsubr
            5 hvcurveto
            89 140 callsubr
            return
          </CharString>
          <CharString index="488">
            607 callsubr
            214 -95 callsubr
            -252 vlineto
            -62 -34 -36 -64 vhcurveto
            endchar
          </CharString>
          <CharString index="489">
            vlineto
            -6 -2 -3 return
          </CharString>
          <CharString index="490">
            -106 vlineto
            -76 callsubr
            return
          </CharString>
          <CharString index="491">
            168 rmoveto
            318 callsubr
            32 hlineto
            650 callgsubr
            endchar
          </CharString>
          <CharString index="492">
            -60 -35 426 callgsubr
            return
          </CharString>
          <CharString index="493">
            -20 -15 7 -20 33 hhcurveto
            40 34 10 13 10 -5 3 -23 hvcurveto
            -38 hlineto
            return
          </CharString>
          <CharString index="494">
            539 callgsubr
            7 hhcurveto
            return
          </CharString>
          <CharString index="495">
            -21 -60 vhcurveto
            -51 hlineto
            -9 52 callgsubr
            return
          </CharString>
          <CharString index="496">
            481 callgsubr
            25 hlineto
            return
          </CharString>
          <CharString index="497">
            -18 377 callgsubr
            return
          </CharString>
          <CharString index="498">
            -109 rlineto
            -6 return
          </CharString>
          <CharString index="499">
            -3 6 hhcurveto
            4 4 2 3 4 hvcurveto
            10 516 callsubr
            return
          </CharString>
          <CharString index="500">
            -16 -15 7 -23 24 hhcurveto
            13 476 callsubr
            -22 -14 -10 -39 vhcurveto
            -20 hlineto
            -8 -3 -3 -7 hvcurveto
            -13 vlineto
            -6 return
          </CharString>
          <CharString index="501">
            -4 hlineto
            75 callgsubr
            return
          </CharString>
          <CharString index="502">
            537 callgsubr
            8 4 -104 callsubr
            -4 4 -8 vhcurveto
            return
          </CharString>
          <CharString index="503">
            4 3 2 5 2 vhcurveto
            25 84 rlineto
            8 24 3 15 18 vvcurveto
            endchar
          </CharString>
          <CharString index="504">
            -9 4 -3 8 vhcurveto
            23 hlineto
            8 -99 callsubr
            return
          </CharString>
          <CharString index="505">
            488 callsubr
            -10 hvcurveto
            return
          </CharString>
          <CharString index="506">
            663 callsubr
            4 -3 return
          </CharString>
          <CharString index="507">
            rmoveto
            -89 callsubr
            return
          </CharString>
          <CharString index="508">
            3 -86 callsubr
            return
          </CharString>
          <CharString index="509">
            hlineto
            -7 -3 -3 return
          </CharString>
          <CharString index="510">
            rmoveto
            -63 -40 35 63 hvcurveto
            224 400 callgsubr
            66 hlineto
            62 33 -36 -63 hvcurveto
            -222 92 callgsubr
            return
          </CharString>
          <CharString index="511">
            -83 -36 -37 -90 -94 45 -36 75 hvcurveto
            41 hlineto
            52 42 28 35 37 hvcurveto
            5 5 4 3 5 vvcurveto
            3 -2 3 -2 2 vhcurveto
            return
          </CharString>
          <CharString index="512">
            445 callsubr
            7 29 hhcurveto
            678 callgsubr
            20 158 callgsubr
            -59 hlineto
            -87 -54 -53 -88 -1 hvcurveto
            return
          </CharString>
          <CharString index="513">
            252 callgsubr
            8 2 -3 -6 hvcurveto
            return
          </CharString>
          <CharString index="514">
            vlineto
            41 -11 30 -25 14 vhcurveto
            4 186 vlineto
            -84 callgsubr
            return
          </CharString>
          <CharString index="515">
            -96 callsubr
            -156 vlineto
            210 callsubr
            -50 hlineto
            return
          </CharString>
          <CharString index="516">
            703 79 callsubr
            return
          </CharString>
          <CharString index="517">
            4 6 4 581 callsubr
            19 vvcurveto
            34 18 return
          </CharString>
          <CharString index="518">
            -9 572 callgsubr
            return
          </CharString>
          <CharString index="519">
            14 11 9 16 630 callsubr
            124 -95 callsubr
            -383 vlineto
            -59 -29 -30 -66 vhcurveto
            return
          </CharString>
          <CharString index="520">
            rmoveto
            -64 -32 -31 -63 vhcurveto
            -7 hlineto
            -63 -32 31 64 686 callsubr
            32 31 63 vhcurveto
            7 hlineto
            63 32 -31 -64 hvcurveto
            return
          </CharString>
          <CharString index="521">
            -106 callgsubr
            -231 -94 callgsubr
            return
          </CharString>
          <CharString index="522">
            hlineto
            248 callsubr
            return
          </CharString>
          <CharString index="523">
            596 callgsubr
            3 -4 return
          </CharString>
          <CharString index="524">
            hvcurveto
            23 127 callsubr
            return
          </CharString>
          <CharString index="525">
            10 10 15 hvcurveto
            return
          </CharString>
          <CharString index="526">
            rmoveto
            -78 -37 -38 -80 hvcurveto
            -60 vlineto
            -79 37 -39 78 vhcurveto
            25 hlineto
            79 35 39 79 hvcurveto
            60 vlineto
            80 -35 38 -79 vhcurveto
            return
          </CharString>
          <CharString index="527">
            vlineto
            -79 -59 -184 -143 65 callsubr
            return
          </CharString>
          <CharString index="528">
            8 603 callgsubr
            -35 151 callgsubr
            -120 657 callgsubr
            35 hlineto
            7 3 3 8 hvcurveto
            return
          </CharString>
          <CharString index="529">
            vlineto
            -64 -35 195 callsubr
            return
          </CharString>
          <CharString index="530">
            -98 callgsubr
            73 hlineto
            return
          </CharString>
          <CharString index="531">
            -24 -19 -57 460 callsubr
            10 -4 return
          </CharString>
          <CharString index="532">
            vhcurveto
            25 hlineto
            8 4 3 9 630 callsubr
            return
          </CharString>
          <CharString index="533">
            -19 -14 4 -30 32 hhcurveto
            38 34 16 14 hvcurveto
            1 8 -5 4 return
          </CharString>
          <CharString index="534">
            -4 7 226 callsubr
            return
          </CharString>
          <CharString index="535">
            -87 vhcurveto
            -35 hlineto
            -48 595 callgsubr
            return
          </CharString>
          <CharString index="536">
            -3 598 callgsubr
            4 6 return
          </CharString>
          <CharString index="537">
            532 callsubr
            -61 -106 rlineto
            -8 return
          </CharString>
          <CharString index="538">
            rlineto
            3 703 callgsubr
            vvcurveto
            return
          </CharString>
          <CharString index="539">
            6 601 callgsubr
            7 return
          </CharString>
          <CharString index="540">
            -7 vhcurveto
            -205 hlineto
            -6 -3 return
          </CharString>
          <CharString index="541">
            7 688 callgsubr
            return
          </CharString>
          <CharString index="542">
            690 callgsubr
            -8 vhcurveto
            return
          </CharString>
          <CharString index="543">
            rmoveto
            9 3 4 7 hvcurveto
            return
          </CharString>
          <CharString index="544">
            470 callgsubr
            4 -4 return
          </CharString>
          <CharString index="545">
            rmoveto
            24 callgsubr
            return
          </CharString>
          <CharString index="546">
            -4 571 callsubr
            return
          </CharString>
          <CharString index="547">
            -33 34 63 hvcurveto
            return
          </CharString>
          <CharString index="548">
            8 vhcurveto
            203 return
          </CharString>
          <CharString index="549">
            617 callgsubr
            -218 671 callgsubr
            return
          </CharString>
          <CharString index="550">
            606 callsubr
            8 3 14 callgsubr
            34 169 callsubr
            return
          </CharString>
          <CharString index="551">
            32 36 62 vhcurveto
            return
          </CharString>
          <CharString index="552">
            rlineto
            15 16 23 return
          </CharString>
          <CharString index="553">
            -95 callsubr
            -560 vlineto
            -9 4 -3 7 vhcurveto
            26 506 callgsubr
            560 vlineto
            6 return
          </CharString>
          <CharString index="554">
            17 345 hmoveto
            96 callgsubr
            -247 hlineto
            339 callgsubr
            return
          </CharString>
          <CharString index="555">
            216 callgsubr
            -62 hlineto
            -58 -20 439 callgsubr
            614 callgsubr
            return
          </CharString>
          <CharString index="556">
            19 459 callgsubr
            4 -9 vhcurveto
            return
          </CharString>
          <CharString index="557">
            562 callgsubr
            659 callgsubr
            20 hlineto
            7 return
          </CharString>
          <CharString index="558">
            hlineto
            477 callgsubr
            64 34 35 63 vhcurveto
            return
          </CharString>
          <CharString index="559">
            hhcurveto
            24 hlineto
            7 337 callsubr
          </CharString>
          <CharString index="560">
            5 -7 hhcurveto
            -24 hlineto
            return
          </CharString>
          <CharString index="561">
            3 -1 3 -2 return
          </CharString>
          <CharString index="562">
            703 rmoveto
            698 callsubr
            -3 1 321 callgsubr
            return
          </CharString>
          <CharString index="563">
            521 callgsubr
            218 -222 rlineto
            return
          </CharString>
          <CharString index="564">
            35 callgsubr
            193 60 callsubr
            endchar
          </CharString>
          <CharString index="565">
            269 callgsubr
            -35 vlineto
            return
          </CharString>
          <CharString index="566">
            18 vhcurveto
            4 vlineto
            34 18 17 35 53 vvcurveto
            return
          </CharString>
          <CharString index="567">
            686 callgsubr
            17 60 hvcurveto
            8 vlineto
            return
          </CharString>
          <CharString index="568">
            348 callgsubr
            -24 vlineto
            -7 2 return
          </CharString>
          <CharString index="569">
            vlineto
            63 33 36 62 vhcurveto
            return
          </CharString>
          <CharString index="570">
            4 7 hvcurveto
            21 vlineto
            8 return
          </CharString>
          <CharString index="571">
            vlineto
            -6 704 callsubr
            return
          </CharString>
          <CharString index="572">
            vlineto
            7 -4 4 -8 vhcurveto
            return
          </CharString>
          <CharString index="573">
            -21 -73 hvcurveto
            -72 vlineto
            -71 return
          </CharString>
          <CharString index="574">
            hlineto
            -86 -55 -54 -88 hvcurveto
            return
          </CharString>
          <CharString index="575">
            hlineto
            62 33 -34 -62 hvcurveto
            return
          </CharString>
          <CharString index="576">
            vlineto
            562 callsubr
            return
          </CharString>
          <CharString index="577">
            hvcurveto
            11 vlineto
            8 return
          </CharString>
          <CharString index="578">
            30 270 callgsubr
            -338 vlineto
            -66 -41 -46 -74 683 callgsubr
            -37 41 70 hvcurveto
            return
          </CharString>
          <CharString index="579">
            vlineto
            9 -4 4 -7 vhcurveto
            -24 548 callsubr
            return
          </CharString>
          <CharString index="580">
            vlineto
            8 585 callsubr
            -8 hvcurveto
            return
          </CharString>
          <CharString index="581">
            vlineto
            10 -4 3 -8 329 callsubr
            return
          </CharString>
          <CharString index="582">
            208 130 503 callgsubr
            return
          </CharString>
          <CharString index="583">
            hlineto
            40 13 -8 -25 hvcurveto
            -2 vlineto
            return
          </CharString>
          <CharString index="584">
            -231 vlineto
            -9 4 -3 7 vhcurveto
            return
          </CharString>
          <CharString index="585">
            vhcurveto
            -54 hlineto
            -75 -35 37 83 hvcurveto
            return
          </CharString>
          <CharString index="586">
            33 44 vvcurveto
            152 vlineto
            6 return
          </CharString>
          <CharString index="587">
            4 vlineto
            29 15 11 return
          </CharString>
          <CharString index="588">
            -87 54 -56 88 vhcurveto
            return
          </CharString>
          <CharString index="589">
            -35 -35 -63 vhcurveto
            return
          </CharString>
          <CharString index="590">
            -43 493 callsubr
            return
          </CharString>
          <CharString index="591">
            -108 177 callsubr
            return
          </CharString>
          <CharString index="592">
            hhcurveto
            -85 hlineto
            -9 182 callsubr
            9 vhcurveto
            85 hlineto
            50 39 -22 -73 hvcurveto
            return
          </CharString>
          <CharString index="593">
            hlineto
            -57 -32 -24 -28 -15 hvcurveto
            -4 40 61 callsubr
            return
          </CharString>
          <CharString index="594">
            35 callgsubr
            75 -106 callgsubr
            endchar
          </CharString>
          <CharString index="595">
            hlineto
            -8 -4 -4 return
          </CharString>
          <CharString index="596">
            -4 3 -6 vhcurveto
            return
          </CharString>
          <CharString index="597">
            590 callsubr
            72 -35 callgsubr
            -9 4 -3 return
          </CharString>
          <CharString index="598">
            71 callgsubr
            -619 vlineto
            -9 4 -3 7 vhcurveto
            return
          </CharString>
          <CharString index="599">
            -120 rmoveto
            77 callgsubr
            167 hlineto
            4 callsubr
            182 hlineto
            return
          </CharString>
          <CharString index="600">
            rmoveto
            440 callgsubr
            -32 346 callgsubr
            return
          </CharString>
          <CharString index="601">
            104 callgsubr
            222 88 callgsubr
            158 6 callgsubr
            return
          </CharString>
          <CharString index="602">
            50 583 callgsubr
            8 vhcurveto
            return
          </CharString>
          <CharString index="603">
            -43 83 vhcurveto
            100 -4 hlineto
            0 -30 -18 -43 -36 vhcurveto
            return
          </CharString>
          <CharString index="604">
            501 callsubr
            -4 -6 hvcurveto
            return
          </CharString>
          <CharString index="605">
            2 10 19 hhcurveto
            24 296 callsubr
            return
          </CharString>
          <CharString index="606">
            -14 callgsubr
            -39 return
          </CharString>
          <CharString index="607">
            -50 -43 -89 hvcurveto
            -42 vlineto
            -9 4 -3 return
          </CharString>
          <CharString index="608">
            19 540 callgsubr
            return
          </CharString>
          <CharString index="609">
            -96 callsubr
            -100 vlineto
            -6 return
          </CharString>
          <CharString index="610">
            -95 callsubr
            -123 vlineto
            return
          </CharString>
          <CharString index="611" raw="1">
            8f88921e aa06928f 8e0b 
          </CharString>
          <CharString index="612">
            hlineto
            20 16 4 0 hvcurveto
            return
          </CharString>
          <CharString index="613">
            561 callgsubr
            -34 return
          </CharString>
          <CharString index="614">
            hlineto
            57 24 -17 -52 hvcurveto
            return
          </CharString>
          <CharString index="615">
            9 642 callsubr
            return
          </CharString>
          <CharString index="616">
            -87 52 -56 89 vhcurveto
            return
          </CharString>
          <CharString index="617">
            -17 -25 -36 -63 vvcurveto
            return
          </CharString>
          <CharString index="618">
            hlineto
            9 3 5 return
          </CharString>
          <CharString index="619">
            vhcurveto
            -95 -125 692 callsubr
            7 vhcurveto
            28 hlineto
            8 4 return
          </CharString>
          <CharString index="620">
            0 -26 526 callgsubr
            -3 vvcurveto
            -4 604 callsubr
            return
          </CharString>
          <CharString index="621">
            hlineto
            -64 -33 -40 300 callgsubr
            return
          </CharString>
          <CharString index="622">
            rlineto
            -3 -4 -1 -2 -3 550 callsubr
            29 hlineto
            9 5 4 5 6 hvcurveto
            return
          </CharString>
          <CharString index="623">
            544 callgsubr
            3 -1 3 -4 5 vhcurveto
            -19 19 -10 15 25 vvcurveto
            return
          </CharString>
          <CharString index="624">
            -107 callgsubr
            330 -95 callsubr
            return
          </CharString>
          <CharString index="625">
            hhcurveto
            -24 -5 13 40 hvcurveto
            33 vlineto
            7 -3 2 -6 vhcurveto
            -14 hlineto
            -5 -3 -2 -7 hvcurveto
            return
          </CharString>
          <CharString index="626">
            hhcurveto
            20 hlineto
            6 return
          </CharString>
          <CharString index="627">
            -13 -41 533 callsubr
            -2 6 vhcurveto
            14 hlineto
            5 3 2 8 hvcurveto
            41 vlineto
            return
          </CharString>
          <CharString index="628">
            -236 356 294 rmoveto
            648 callsubr
            return
          </CharString>
          <CharString index="629">
            -25 callsubr
            101 -106 callgsubr
            endchar
          </CharString>
          <CharString index="630">
            556 callsubr
            -52 return
          </CharString>
          <CharString index="631">
            28 659 callsubr
            5 hhcurveto
            5 3 return
          </CharString>
          <CharString index="632">
            3 7 hvcurveto
            225 vlineto
            6 185 callsubr
            return
          </CharString>
          <CharString index="633" raw="1">
            fb1d0729 c662db1e 9e06940b 
          </CharString>
          <CharString index="634">
            hlineto
            7 337 callgsubr
          </CharString>
          <CharString index="635">
            hvcurveto
            80 509 callgsubr
            return
          </CharString>
          <CharString index="636">
            593 callgsubr
            7 return
          </CharString>
          <CharString index="637">
            488 callsubr
            -8 return
          </CharString>
          <CharString index="638">
            -62 -28 34 64 hvcurveto
            return
          </CharString>
          <CharString index="639">
            -5 -2 -9 -5 hvcurveto
            return
          </CharString>
          <CharString index="640">
            hvcurveto
            -34 vlineto
            -8 3 return
          </CharString>
          <CharString index="641">
            -117 vlineto
            -88 return
          </CharString>
          <CharString index="642">
            hlineto
            -7 263 callsubr
            -1 1 676 callgsubr
            38 -77 hhcurveto
            return
          </CharString>
          <CharString index="643">
            58 hvcurveto
            165 608 callsubr
            return
          </CharString>
          <CharString index="644">
            -97 rlineto
            -5 2 4 488 callgsubr
          </CharString>
          <CharString index="645">
            hlineto
            52 42 19 35 17 hvcurveto
            4 return
          </CharString>
          <CharString index="646">
            36 callgsubr
            -9 vhcurveto
            return
          </CharString>
          <CharString index="647">
            442 callgsubr
            -10 -28 -41 vvcurveto
            return
          </CharString>
          <CharString index="648">
            -45 32 -81 vhcurveto
            -90 hlineto
            -57 -23 return
          </CharString>
          <CharString index="649">
            -88 56 -66 99 vhcurveto
            124 hlineto
            return
          </CharString>
          <CharString index="650">
            124 hmoveto
            -89 callsubr
            return
          </CharString>
          <CharString index="651">
            vhcurveto
            -14 488 callsubr
            -7 hvcurveto
            return
          </CharString>
          <CharString index="652">
            vlineto
            -5 704 callsubr
            return
          </CharString>
          <CharString index="653">
            -9 hvcurveto
            -37 vlineto
            -9 4 return
          </CharString>
          <CharString index="654">
            20 57 470 callsubr
            return
          </CharString>
          <CharString index="655">
            488 callsubr
            -9 hvcurveto
            return
          </CharString>
          <CharString index="656">
            rmoveto
            -84 callgsubr
            return
          </CharString>
          <CharString index="657">
            vvcurveto
            -5 602 callgsubr
            return
          </CharString>
          <CharString index="658">
            33 74 470 callsubr
            return
          </CharString>
          <CharString index="659">
            -20 -34 -55 vvcurveto
            return
          </CharString>
          <CharString index="660">
            321 callgsubr
            4 528 callsubr
            return
          </CharString>
          <CharString index="661">
            vhcurveto
            49 -2 callgsubr
            -54 hlineto
            return
          </CharString>
          <CharString index="662">
            -96 callsubr
            -118 -30 callsubr
            -119 hlineto
            return
          </CharString>
          <CharString index="663">
            269 callgsubr
            -33 vlineto
            return
          </CharString>
          <CharString index="664">
            vhcurveto
            26 375 callgsubr
            return
          </CharString>
          <CharString index="665">
            vlineto
            -66 -41 -46 -73 683 callgsubr
            return
          </CharString>
          <CharString index="666">
            vhcurveto
            57 634 callgsubr
            return
          </CharString>
          <CharString index="667">
            18 -32 45 -16 vhcurveto
            return
          </CharString>
          <CharString index="668" raw="1">
            70068487 880b  
          </CharString>
          <CharString index="669">
            -68 612 callsubr
            return
          </CharString>
          <CharString index="670">
            -355 vlineto
            -63 return
          </CharString>
          <CharString index="671">
            -45 hhcurveto
            -55 -41 return
          </CharString>
          <CharString index="672">
            hlineto
            8 4 2 return
          </CharString>
          <CharString index="673">
            137 callgsubr
            185 106 callsubr
            return
          </CharString>
          <CharString index="674">
            623 rmoveto
            -5 50 callgsubr
            229 vlineto
            9 -4 2 -7 vhcurveto
            return
          </CharString>
          <CharString index="675">
            hhcurveto
            -45 hlineto
            356 callgsubr
            2 -4 return
          </CharString>
          <CharString index="676">
            -1 -4 -4 hvcurveto
            -9 -7 rlineto
            -4 -4 -1 -3 -4 vvcurveto
            -4 3 -5 return
          </CharString>
          <CharString index="677" raw="1">
            1e7df84d 1d841f0e  
          </CharString>
          <CharString index="678">
            7 hhcurveto
            29 hlineto
            return
          </CharString>
          <CharString index="679">
            6 vhcurveto
            29 hlineto
            return
          </CharString>
          <CharString index="680">
            -96 callgsubr
            -92 122 callsubr
            -128 hlineto
            return
          </CharString>
          <CharString index="681">
            42 18 19 38 56 vvcurveto
            44 vlineto
            44 -14 35 -32 16 vhcurveto
            4 return
          </CharString>
          <CharString index="682">
            367 callgsubr
            -29 hlineto
            return
          </CharString>
          <CharString index="683">
            59 17 -23 -60 hvcurveto
            -56 430 callgsubr
            return
          </CharString>
          <CharString index="684">
            320 -98 callgsubr
            return
          </CharString>
          <CharString index="685">
            375 rmoveto
            9 3 4 8 -24 callgsubr
            return
          </CharString>
          <CharString index="686">
            594 callsubr
            18 -5 17 return
          </CharString>
          <CharString index="687">
            -23 655 callsubr
            23 16 return
          </CharString>
          <CharString index="688">
            -1 3 -2 8 hvcurveto
            -6 18 -4 17 return
          </CharString>
          <CharString index="689">
            -16 -17 -30 -42 vvcurveto
            -26 vlineto
            -75 45 return
          </CharString>
          <CharString index="690">
            vhcurveto
            125 -96 callsubr
            return
          </CharString>
          <CharString index="691">
            7 vhcurveto
            31 hlineto
            7 4 3 8 hvcurveto
            return
          </CharString>
          <CharString index="692">
            183 callsubr
            -7 -4 -3 return
          </CharString>
          <CharString index="693">
            6 4 -2 3 -2 4 hvcurveto
            return
          </CharString>
          <CharString index="694">
            hvcurveto
            4 -40 hlineto
            -9 4 -3 return
          </CharString>
          <CharString index="695">
            192 callgsubr
            4 vlineto
            return
          </CharString>
          <CharString index="696">
            -19 -36 13 -45 hhcurveto
            -43 hlineto
            return
          </CharString>
          <CharString index="697">
            -34 27 72 hvcurveto
            119 vlineto
            return
          </CharString>
          <CharString index="698">
            640 callgsubr
            110 hlineto
            return
          </CharString>
          <CharString index="699">
            vlineto
            88 -55 51 -86 vhcurveto
            return
          </CharString>
          <CharString index="700">
            vlineto
            57 22 28 55 vhcurveto
            return
          </CharString>
          <CharString index="701">
            -1 3 -3 8 hvcurveto
            -5 return
          </CharString>
          <CharString index="702">
            -37 211 callsubr
            return
          </CharString>
          <CharString index="703">
            vhcurveto
            -31 hlineto
            -7 -4 -3 return
          </CharString>
          <CharString index="704">
            hlineto
            45 29 -23 -54 hvcurveto
            return
          </CharString>
          <CharString index="705">
            rmoveto
            -7 50 callgsubr
            return
          </CharString>
          <CharString index="706">
            -62 -32 36 63 hvcurveto
            return
          </CharString>
          <CharString index="707">
            -57 -24 17 50 hvcurveto
            return
          </CharString>
          <CharString index="708">
            8 vhcurveto
            24 hlineto
            return
          </CharString>
          <CharString index="709">
            rlineto
            7 24 4 return
          </CharString>
          <CharString index="710">
            vlineto
            -10 4 -3 return
          </CharString>
          <CharString index="711">
            3 -4 7 vhcurveto
            return
          </CharString>
          <CharString index="712">
            vlineto
            -68 -36 -23 -53 vhcurveto
            612 callgsubr
            52 callgsubr
            return
          </CharString>
          <CharString index="713">
            644 callsubr
            30 hlineto
            return
          </CharString>
          <CharString index="714">
            rmoveto
            -62 461 callgsubr
            8 vhcurveto
            return
          </CharString>
          <CharString index="715">
            246 callsubr
            2 3 7 vhcurveto
            return
          </CharString>
          <CharString index="716">
            375 callsubr
            486 vlineto
            683 callsubr
            return
          </CharString>
          <CharString index="717">
            3 -1 7 452 callsubr
          </CharString>
          <CharString index="718">
            3 -3 7 vhcurveto
            return
          </CharString>
          <CharString index="719">
            -27 -21 -60 vhcurveto
            return
          </CharString>
          <CharString index="720">
            -1 -5 -2 hvcurveto
            return
          </CharString>
          <CharString index="721">
            2 5 2 695 callsubr
            return
          </CharString>
          <CharString index="722">
            hlineto
            111 callsubr
            return
          </CharString>
          <CharString index="723">
            1 hvcurveto
            1 vlineto
            69 vlineto
            5 2 4 7 vhcurveto
            214 return
          </CharString>
          <CharString index="724">
            vlineto
            -9 4 -4 601 callsubr
            7 4 4 9 hvcurveto
            return
          </CharString>
          <CharString index="725">
            hlineto
            250 -196 rmoveto
            207 196 -207 hlineto
            return
          </CharString>
          <CharString index="726">
            hvcurveto
            11 -183 rlineto
            -8 5 -5 7 vhcurveto
            5 hlineto
            7 return
          </CharString>
          <CharString index="727">
            -5 -4 525 callsubr
            return
          </CharString>
          <CharString index="728">
            hlineto
            -9 -2 -4 -7 hvcurveto
            -23 401 callgsubr
            return
          </CharString>
          <CharString index="729">
            hlineto
            10 2 4 7 hvcurveto
            21 92 callsubr
            return
          </CharString>
          <CharString index="730">
            vlineto
            481 callgsubr
            23 hlineto
            8 -99 callsubr
            return
          </CharString>
          <CharString index="731">
            vlineto
            645 callsubr
            return
          </CharString>
          <CharString index="732">
            hlineto
            134 callgsubr
            -12 vlineto
            -68 -27 -21 -59 vhcurveto
            return
          </CharString>
          <CharString index="733">
            62 31 -28 -66 vhcurveto
            -72 vlineto
            -91 return
          </CharString>
          <CharString index="734">
            -2 -8 hvcurveto
            -10 vlineto
            -56 -16 -21 return
          </CharString>
          <CharString index="735">
            612 rmoveto
            7 -3 4 -10 vhcurveto
            return
          </CharString>
          <CharString index="736">
            hhcurveto
            20 550 callgsubr
            return
          </CharString>
          <CharString index="737">
            hvcurveto
            99 35 callgsubr
            return
          </CharString>
          <CharString index="738">
            28 589 callsubr
            return
          </CharString>
          <CharString index="739">
            160 658 callsubr
            return
          </CharString>
          <CharString index="740">
            143 rmoveto
            -63 -40 -35 -63 vhcurveto
            return
          </CharString>
          <CharString index="741">
            581 377 callsubr
            return
          </CharString>
          <CharString index="742">
            -7 hhcurveto
            -38 hlineto
            -7 return
          </CharString>
          <CharString index="743">
            8 3 4 7 hvcurveto
            return
          </CharString>
          <CharString index="744" raw="1">
            a606928f 8f0b  
          </CharString>
          <CharString index="745">
            0 vlineto
            0 vlineto
            0 return
          </CharString>
          <CharString index="746">
            17 32 15 hvcurveto
            4 return
          </CharString>
          <CharString index="747">
            -35 -24 -54 vhcurveto
            return
          </CharString>
          <CharString index="748">
            -23 -19 -58 vhcurveto
            return
          </CharString>
          <CharString index="749">
            26 16 hvcurveto
            4 return
          </CharString>
          <CharString index="750">
            -33 -36 -64 vhcurveto
            return
          </CharString>
          <CharString index="751">
            230 callsubr
            -34 vlineto
            -8 4 -4 7 vhcurveto
            return
          </CharString>
          <CharString index="752">
            -64 -33 -41 -70 vhcurveto
            -104 hlineto
            -61 -31 27 63 hvcurveto
            return
          </CharString>
          <CharString index="753">
            -3 251 callgsubr
            return
          </CharString>
          <CharString index="754">
            9 -4 3 -7 vhcurveto
            -20 hlineto
            24 callgsubr
            return
          </CharString>
          <CharString index="755">
            9 3 4 167 callgsubr
            return
          </CharString>
          <CharString index="756">
            168 callsubr
            -5 604 callsubr
            return
          </CharString>
          <CharString index="757">
            4 552 callgsubr
            53 97 54 -97 rlineto
            -5 2 return
          </CharString>
          <CharString index="758">
            hlineto
            -75 -36 37 83 hvcurveto
            20 hlineto
            77 54 30 86 return
          </CharString>
          <CharString index="759">
            hlineto
            211 callgsubr
            return
          </CharString>
          <CharString index="760">
            rmoveto
            338 callgsubr
            return
          </CharString>
          <CharString index="761">
            rmoveto
            411 callgsubr
            return
          </CharString>
          <CharString index="762">
            16 52 hvcurveto
            13 vlineto
            52 return
          </CharString>
          <CharString index="763">
            -2 1 -4 hhcurveto
            -5 -4 return
          </CharString>
          <CharString index="764">
            vlineto
            -6 643 callgsubr
            return
          </CharString>
          <CharString index="765">
            hlineto
            87 51 58 81 hvcurveto
            return
          </CharString>
          <CharString index="766">
            -29 vhcurveto
            -6 5 4 -3 return
          </CharString>
          <CharString index="767">
            271 callsubr
            16 hvcurveto
            return
          </CharString>
          <CharString index="768">
            hlineto
            9 192 callsubr
            return
          </CharString>
          <CharString index="769">
            4 -88 callsubr
            return
          </CharString>
          <CharString index="770">
            -212 hlineto
            -9 return
          </CharString>
          <CharString index="771">
            97 rlineto
            5 -2 return
          </CharString>
          <CharString index="772">
            vhcurveto
            -151 hlineto
            return
          </CharString>
          <CharString index="773">
            hlineto
            7 4 2 return
          </CharString>
          <CharString index="774">
            453 callsubr
            -6 -4 613 callsubr
            return
          </CharString>
          <CharString index="775">
            4 3 5 4 vvcurveto
            4 -2 3 -4 4 vhcurveto
            return
          </CharString>
          <CharString index="776">
            hlineto
            -9 -6 -3 -4 -6 hvcurveto
            -126 -71 rlineto
            return
          </CharString>
          <CharString index="777">
            183 callgsubr
            -6 hhcurveto
            return
          </CharString>
          <CharString index="778">
            hlineto
            -50 -66 rlineto
            -20 -15 7 -20 33 hhcurveto
            39 return
          </CharString>
          <CharString index="779">
            34 132 callsubr
            -8 4 -4 7 vhcurveto
            return
          </CharString>
          <CharString index="780">
            -4 3 -8 vhcurveto
            -21 398 callsubr
            return
          </CharString>
          <CharString index="781">
            -81 455 callgsubr
            -8 vlineto
            return
          </CharString>
          <CharString index="782">
            20 vlineto
            80 49 37 90 hvcurveto
            return
          </CharString>
          <CharString index="783">
            184 callgsubr
            -3 return
          </CharString>
          <CharString index="784">
            -95 callgsubr
            -313 vlineto
            return
          </CharString>
          <CharString index="785">
            20 92 callsubr
            return
          </CharString>
          <CharString index="786">
            hlineto
            339 callgsubr
            60 return
          </CharString>
          <CharString index="787">
            32 63 686 callsubr
            return
          </CharString>
          <CharString index="788">
            -88 56 -66 100 vhcurveto
            return
          </CharString>
          <CharString index="789">
            -43 -73 vhcurveto
            -81 hlineto
            return
          </CharString>
          <CharString index="790">
            9 603 callgsubr
            return
          </CharString>
          <CharString index="791">
            -9 611 callsubr
            return
          </CharString>
          <CharString index="792">
            -2 4 -3 9 hvcurveto
            return
          </CharString>
          <CharString index="793">
            hvcurveto
            125 vlineto
            64 return
          </CharString>
          <CharString index="794">
            -7 hhcurveto
            -32 hlineto
            -7 return
          </CharString>
          <CharString index="795">
            87 vhcurveto
            87 hlineto
            86 return
          </CharString>
          <CharString index="796">
            rlineto
            -3 -3 -2 return
          </CharString>
          <CharString index="797">
            17 18 vvcurveto
            35 return
          </CharString>
          <CharString index="798">
            hlineto
            -73 -37 435 callgsubr
            81 return
          </CharString>
          <CharString index="799">
            rlineto
            -2 438 callgsubr
            4 -3 return
          </CharString>
          <CharString index="800">
            480 callgsubr
            -120 vlineto
            return
          </CharString>
          <CharString index="801">
            hlineto
            57 33 24 28 14 hvcurveto
            4 -35 hlineto
            return
          </CharString>
          <CharString index="802">
            vhcurveto
            26 84 253 callsubr
            return
          </CharString>
          <CharString index="803">
            24 56 hvcurveto
            16 vlineto
            47 34 25 55 vhcurveto
            return
          </CharString>
          <CharString index="804">
            hlineto
            -63 417 callgsubr
            return
          </CharString>
          <CharString index="805">
            -8 532 callsubr
            -62 -106 rlineto
            -8 return
          </CharString>
          <CharString index="806">
            212 callsubr
            -186 445 callgsubr
            return
          </CharString>
          <CharString index="807">
            vlineto
            52 27 21 47 45 29 -21 -52 vhcurveto
            return
          </CharString>
          <CharString index="808">
            1 -3 hhcurveto
            -5 return
          </CharString>
          <CharString index="809">
            hlineto
            -64 -33 35 return
          </CharString>
          <CharString index="810">
            99 vhcurveto
            83 hlineto
            return
          </CharString>
          <CharString index="811">
            -3 -4 -7 vhcurveto
            return
          </CharString>
        <CharString name=".notdef">
          103 120 hmoveto
          360 582 -360 hlineto
          50 -46 rmoveto
          260 -490 -260 hlineto
          endchar
        </CharString>
        <CharString name="A">
          36 -77 callsubr
          endchar
        </CharString>
        <CharString name="AE">
          68 callsubr
          endchar
        </CharString>
        <CharString name="AEacute">
          68 callsubr
          477 836 rmoveto
          -8 65 callgsubr
          4 hvcurveto
          90 140 callsubr
          endchar
        </CharString>
        <CharString name="Aacute">
          35 -77 callsubr
          299 836 rmoveto
          -8 65 callgsubr
          4 hvcurveto
          90 140 callsubr
          endchar
        </CharString>
        <CharString name="Abreve">
          35 -77 callsubr
          129 826 rmoveto
          -12 vlineto
          237 callgsubr
          endchar
        </CharString>
        <CharString name="Acircumflex">
          35 -77 callsubr
          260 827 131 callgsubr
          24 hlineto
          6 650 callsubr
          4 -1 6 452 callsubr
        </CharString>
        <CharString name="Adieresis">
          35 -77 callsubr
          286 213 callgsubr
        </CharString>
        <CharString name="Agrave">
          35 -77 callsubr
          177 825 275 callsubr
          -44 hlineto
          -7 -4 182 callgsubr
          21 hlineto
          6 337 callgsubr
        </CharString>
        <CharString name="Amacron">
          35 -77 callsubr
          331 382 callgsubr
        </CharString>
        <CharString name="Aogonek">
          35 149 217 rmoveto
          115 371 rlineto
          4 hlineto
          116 -371 rlineto
          -80 414 rmoveto
          9 -3 -4 3 -7 hhcurveto
          -47 hlineto
          -7 -5 -3 -9 -2 hvcurveto
          -199 -619 rlineto
          -9 -3 3 -3 7 hhcurveto
          31 hlineto
          7 3 3 9 3 hvcurveto
          54 160 rlineto
          262 hlineto
          52 -154 -64 -84 rlineto
          386 callsubr
          52 70 rlineto
          26 hlineto
          7 2 3 9 -2 hvcurveto
          endchar
        </CharString>
        <CharString name="Aring">
          35 -77 callsubr
          222 722 rmoveto
          -31 -15 305 callgsubr
          -47 -25 -26 -47 hvcurveto
          -31 vlineto
          -47 25 -26 47 vhcurveto
          endchar
        </CharString>
        <CharString name="Atilde">
          35 -77 callsubr
          242 759 rmoveto
          32 12 3 10 19 hhcurveto
          24 5 520 callsubr
          51 -12 26 -47 -30 -12 -9 -40 -15 vhcurveto
          -40 -16 -5 -9 -16 518 callsubr
          -39 vlineto
          699 callgsubr
          endchar
        </CharString>
        <CharString name="B">
          49 85 590 callgsubr
          240 hlineto
          86 55 51 88 hvcurveto
          70 vlineto
          72 -47 42 -46 3 vhcurveto
          47 14 39 35 68 vvcurveto
          61 592 callsubr
          -233 679 callsubr
          -283 rmoveto
          -7 263 callsubr
          233 vlineto
          6 185 callsubr
          179 468 callsubr
          -59 vlineto
          -62 -36 -34 -62 vhcurveto
          -176 -304 rmoveto
          -7 263 callsubr
          243 vlineto
          5 185 callsubr
          177 hlineto
          71 33 -33 -62 hvcurveto
          -69 vlineto
          -62 -33 -34 -62 vhcurveto
          endchar
        </CharString>
        <CharString name="C">
          45 341 hmoveto
          -10 callsubr
        </CharString>
        <CharString name="CR">
          -497 endchar
        </CharString>
        <CharString name="Cacute">
          45 327 callgsubr
          -40 -836 rmoveto
          -10 callsubr
        </CharString>
        <CharString name="Ccaron">
          45 289 707 rmoveto
          10 448 callgsubr
          -54 97 rlineto
          5 -2 -4 1 -6 354 callsubr
          73 -707 rmoveto
          -10 callsubr
        </CharString>
        <CharString name="Ccedilla">
          45 470 440 rmoveto
          8 401 callsubr
          49 vlineto
          88 402 callgsubr
          -126 hlineto
          -86 -54 675 callgsubr
          54 -54 86 vhcurveto
          63 hlineto
          -41 -45 rlineto
          -17 -15 8 -23 24 hhcurveto
          12 476 callsubr
          -24 -14 -8 -39 vhcurveto
          -20 hlineto
          -8 -2 -3 -7 hvcurveto
          -12 vlineto
          -7 2 -4 8 vhcurveto
          25 hlineto
          53 29 18 42 hvcurveto
          12 vlineto
          45 -27 16 -51 vhcurveto
          4 vlineto
          46 48 rlineto
          20 239 callsubr
          49 vlineto
          9 490 callgsubr
          -28 hlineto
          24 callgsubr
          -47 92 callgsubr
          -117 hlineto
          104 callgsubr
          355 88 callgsubr
          117 hlineto
          62 33 -36 -63 hvcurveto
          -47 286 callsubr
        </CharString>
        <CharString name="Cdotaccent">
          45 253 723 rmoveto
          -8 4 -3 6 vhcurveto
          30 hlineto
          7 3 3 8 hvcurveto
          99 vlineto
          440 callgsubr
          -30 hlineto
          339 callgsubr
          88 -821 rmoveto
          -10 callsubr
        </CharString>
        <CharString name="D">
          194 callgsubr
          endchar
        </CharString>
        <CharString name="Dcaron">
          194 callgsubr
          -73 662 rmoveto
          21 249 callsubr
          -6 -4 -1 -5 -2 hvcurveto
          -54 -97 -53 97 rlineto
          5 -3 -3 1 -7 hhcurveto
          -23 112 callsubr
          endchar
        </CharString>
        <CharString name="Dcroat">
          447 callsubr
          -230 vlineto
          -5 200 callgsubr
          -42 656 callgsubr
          -21 vlineto
          -7 641 callgsubr
          42 -95 callsubr
          -330 347 callgsubr
          49 45 598 callsubr
          288 35 callgsubr
          148 hlineto
          8 3 3 7 hvcurveto
          21 127 callsubr
          -148 hlineto
          -7 -2 3 5 hvcurveto
          188 457 callsubr
        </CharString>
        <CharString name="E">
          -16 -82 callgsubr
          endchar
        </CharString>
        <CharString name="Eacute">
          -16 -82 callgsubr
          213 836 rmoveto
          -8 65 callgsubr
          4 hvcurveto
          90 140 callsubr
          endchar
        </CharString>
        <CharString name="Ebreve">
          -16 -82 callgsubr
          50 826 rmoveto
          -12 vlineto
          -74 31 -33 63 vhcurveto
          10 hlineto
          64 31 69 callgsubr
          -5 vhcurveto
          -19 284 callsubr
          endchar
        </CharString>
        <CharString name="Ecaron">
          -16 -82 callgsubr
          145 707 492 callgsubr
          -7 -3 613 callsubr
          -54 396 callgsubr
        </CharString>
        <CharString name="Ecircumflex">
          -16 -82 callgsubr
          185 827 133 callsubr
          8 1 5 6 -4 hvcurveto
          endchar
        </CharString>
        <CharString name="Edieresis">
          -16 -82 callgsubr
          212 719 91 callsubr
        </CharString>
        <CharString name="Edotaccent">
          -1 -82 callgsubr
          130 723 rmoveto
          -8 324 callsubr
          6 4 522 callgsubr
        </CharString>
        <CharString name="Egrave">
          -16 -82 callgsubr
          117 825 369 callsubr
          -6 -4 182 callgsubr
          21 hlineto
          6 337 callgsubr
        </CharString>
        <CharString name="Emacron">
          -16 -82 callgsubr
          256 752 rmoveto
          9 2 4 6 hvcurveto
          19 158 callsubr
          -203 hlineto
          -8 -103 callgsubr
          -6 3 -4 8 vhcurveto
          endchar
        </CharString>
        <CharString name="Eng">
          22 356 -141 rmoveto
          170 callgsubr
          630 vlineto
          9 -3 114 callgsubr
          -522 -4 vlineto
          -306 528 rlineto
          2 -1 -3 4 -8 hhcurveto
          -27 hlineto
          -7 -4 -3 -9 hvcurveto
          -619 95 callgsubr
          523 4 vlineto
          91 -155 122 -214 92 -155 rrcurveto
          -5 vlineto
          -66 -33 -36 -66 vhcurveto
          -21 621 callsubr
          endchar
        </CharString>
        <CharString name="Eogonek">
          -16 404 598 rmoveto
          -30 callgsubr
          -309 1 callgsubr
          223 671 callsubr
          34 10 13 10 -5 3 -22 hvcurveto
          -39 hlineto
          53 70 rlineto
          51 -2 callsubr
          -259 hlineto
          -7 263 callsubr
          242 vlineto
          6 185 callsubr
          231 94 callsubr
          -231 hlineto
          -7 263 callsubr
          230 vlineto
          6 185 callsubr
          endchar
        </CharString>
        <CharString name="Eth">
          447 callsubr
          -276 87 callgsubr
          -42 656 callgsubr
          -20 401 callgsubr
          42 hlineto
          7 3 -3 -5 hvcurveto
          -284 347 callgsubr
          49 45 598 callsubr
          242 vlineto
          5 50 callsubr
          148 hlineto
          636 callsubr
          20 127 callsubr
          -148 255 callsubr
          234 457 callsubr
        </CharString>
        <CharString name="Euro">
          26 314 hmoveto
          86 55 51 88 hvcurveto
          27 vlineto
          -3 callgsubr
          -7 -3 -3 -9 hvcurveto
          -26 vlineto
          -62 -33 -34 -62 vhcurveto
          -56 hlineto
          -62 -33 34 62 hvcurveto
          99 158 vlineto
          9 3 14 callgsubr
          17 465 callgsubr
          -158 82 158 93 callgsubr
          18 -51 callsubr
          -158 102 hlineto
          62 33 34 62 vhcurveto
          56 468 callsubr
          -26 vlineto
          651 callgsubr
          27 592 callsubr
          -65 hlineto
          -85 -55 -51 -88 hvcurveto
          -103 -61 vlineto
          -9 52 callgsubr
          -18 -79 callsubr
          61 -82 -61 hlineto
          -9 -3 -3 -8 hvcurveto
          -17 17 callsubr
          61 -100 hlineto
          -88 55 -51 85 vhcurveto
          endchar
        </CharString>
        <CharString name="F">
          -38 543 callsubr
          272 vlineto
          5 185 callsubr
          231 hlineto
          636 callsubr
          254 callgsubr
          -231 hlineto
          -7 -3 3 5 hvcurveto
          243 vlineto
          6 185 callsubr
          258 -2 callsubr
          -308 1 callgsubr
          endchar
        </CharString>
        <CharString name="G">
          -50 callsubr
          endchar
        </CharString>
        <CharString name="Gbreve">
          -50 callsubr
          -45 826 rmoveto
          -12 vlineto
          -74 32 -33 62 vhcurveto
          11 hlineto
          63 32 33 74 hvcurveto
          11 vlineto
          8 -3 2 -6 180 callgsubr
          endchar
        </CharString>
        <CharString name="Gcircumflex">
          -50 callsubr
          86 827 131 callgsubr
          23 hlineto
          7 650 callsubr
          610 callsubr
        </CharString>
        <CharString name="Gdotaccent">
          -50 callsubr
          29 385 callgsubr
        </CharString>
        <CharString name="H">
          73 543 callsubr
          283 vlineto
          6 185 callsubr
          280 -95 callsubr
          -283 vlineto
          -9 3 -3 7 vhcurveto
          29 220 callsubr
          -29 229 callgsubr
          -273 87 callgsubr
          -280 hlineto
          -7 263 callsubr
          273 vlineto
          33 callgsubr
          endchar
        </CharString>
        <CharString name="Hbar">
          26 149 346 rmoveto
          -7 -2 3 5 hvcurveto
          102 35 callgsubr
          281 -96 callsubr
          -102 vlineto
          -5 27 callgsubr
          -301 -346 400 callsubr
          280 vlineto
          5 50 callsubr
          281 hlineto
          7 2 -3 -5 hvcurveto
          -280 95 callgsubr
          444 35 callgsubr
          44 hlineto
          684 callgsubr
          20 158 callsubr
          -44 255 callsubr
          115 71 callgsubr
          -116 vlineto
          -5 27 callgsubr
          -281 255 callsubr
          115 71 callgsubr
          -115 -30 callsubr
          -44 656 callgsubr
          -20 507 callgsubr
          44 -96 callsubr
          -444 286 callsubr
        </CharString>
        <CharString name="I">
          -267 18 callsubr
          endchar
        </CharString>
        <CharString name="IJ">
          224 141 631 rmoveto
          -3 callgsubr
          -7 -3 -3 -9 hvcurveto
          -619 vlineto
          651 callgsubr
          464 631 215 callgsubr
        </CharString>
        <CharString name="Iacute">
          18 callsubr
          41 824 rmoveto
          -8 65 callgsubr
          4 hvcurveto
          90 140 callsubr
          endchar
        </CharString>
        <CharString name="Ibreve">
          18 callsubr
          -124 814 rmoveto
          -12 vlineto
          236 callsubr
          endchar
        </CharString>
        <CharString name="Icircumflex">
          -268 18 callsubr
          5 815 81 callgsubr
          8 hhcurveto
          23 hlineto
          6 4 552 callgsubr
          54 97 53 -97 rlineto
          -5 3 3 488 callgsubr
        </CharString>
        <CharString name="Idieresis">
          -267 18 callsubr
          32 707 91 callsubr
        </CharString>
        <CharString name="Idotaccent">
          -267 90 699 rmoveto
          189 callgsubr
          -30 402 callsubr
          -8 hvcurveto
          50 -164 rmoveto
          33 callgsubr
          29 506 callgsubr
          endchar
        </CharString>
        <CharString name="Igrave">
          -267 18 callsubr
          -73 813 275 callsubr
          -44 hlineto
          -7 -4 -5 -6 6 222 callgsubr
          1 4 8 -4 hvcurveto
          endchar
        </CharString>
        <CharString name="Imacron">
          -267 18 callsubr
          76 740 232 callgsubr
        </CharString>
        <CharString name="Iogonek">
          -267 100 643 rmoveto
          339 callgsubr
          -619 vlineto
          -3 0 -2 1 -2 vhcurveto
          -54 -71 rlineto
          386 callsubr
          52 70 rlineto
          7 220 callsubr
          endchar
        </CharString>
        <CharString name="Itilde">
          -267 18 callsubr
          -12 747 rmoveto
          32 12 498 callsubr
          2 -2 6 214 callsubr
        </CharString>
        <CharString name="J">
          2 380 643 215 callgsubr
        </CharString>
        <CharString name="Jcircumflex">
          -3 421 827 56 callsubr
          -105 -75 215 callgsubr
        </CharString>
        <CharString name="K">
          130 callgsubr
          endchar
        </CharString>
        <CharString name="L">
          -46 413 hmoveto
          320 callgsubr
          -268 hlineto
          -7 263 callsubr
          575 vlineto
          33 callgsubr
          endchar
        </CharString>
        <CharString name="Lacute">
          -46 413 hmoveto
          320 callgsubr
          -268 hlineto
          -7 263 callsubr
          575 vlineto
          33 callgsubr
          81 836 57 callsubr
          -6 hhcurveto
          endchar
        </CharString>
        <CharString name="Lcaron">
          -46 413 hmoveto
          320 callgsubr
          -268 hlineto
          -7 263 callsubr
          575 vlineto
          33 callgsubr
          267 632 442 callsubr
          26 91 rlineto
          6 24 5 16 20 vvcurveto
          endchar
        </CharString>
        <CharString name="Ldot">
          3 333 394 callgsubr
          82 -262 654 callsubr
          25 158 callsubr
          -269 255 callsubr
          575 491 callsubr
          endchar
        </CharString>
        <CharString name="Lslash">
          7 421 hmoveto
          411 callgsubr
          25 158 callsubr
          -269 255 callsubr
          349 vlineto
          101 57 rlineto
          8 4 3 5 7 vvcurveto
          26 vlineto
          6 -4 4 -7 -4 vhcurveto
          -101 -57 rlineto
          178 71 callgsubr
          -207 vlineto
          -72 -41 rlineto
          -9 -5 -2 -4 -7 vvcurveto
          -26 vlineto
          -7 3 -3 8 4 vhcurveto
          72 41 rlineto
          -364 286 callsubr
        </CharString>
        <CharString name="M">
          199 350 198 rmoveto
          -4 hlineto
          -188 439 rlineto
          3 -1 -3 3 -5 hhcurveto
          -54 hlineto
          339 callgsubr
          -619 vlineto
          -10 4 -2 6 vhcurveto
          29 375 callsubr
          555 4 vlineto
          180 -416 rlineto
          -8 3 3 -3 8 hhcurveto
          33 hlineto
          8 3 3 8 4 hvcurveto
          177 415 rlineto
          4 -554 hlineto
          -9 4 -3 7 vhcurveto
          29 284 callgsubr
          619 vlineto
          9 489 callsubr
          -54 hlineto
          -5 -3 -3 -3 -1 hvcurveto
          endchar
        </CharString>
        <CharString name="Mu">
          30 133 36 rmoveto
          -44 36 60 8 57 hhcurveto
          397 callgsubr
          7 vhcurveto
          296 callgsubr
          486 vlineto
          9 -4 3 -7 vhcurveto
          -28 407 callgsubr
          -62 -32 36 63 hvcurveto
          354 491 callsubr
          29 hlineto
          7 4 3 9 hvcurveto
          endchar
        </CharString>
        <CharString name="N">
          13 callgsubr
          endchar
        </CharString>
        <CharString name="NULL">
          -497 endchar
        </CharString>
        <CharString name="Nacute">
          13 callgsubr
          268 328 callgsubr
        </CharString>
        <CharString name="Ncaron">
          82 281 707 101 callgsubr
          -157 -707 rmoveto
          18 callgsubr
          endchar
        </CharString>
        <CharString name="Ntilde">
          13 callgsubr
          207 759 rmoveto
          32 13 498 callsubr
          2 -2 6 317 callsubr
          -13 -9 -40 -15 vhcurveto
          -40 -15 -5 -9 -17 hhcurveto
          -23 204 callsubr
          -39 vlineto
          -52 13 -26 47 666 callgsubr
          16 vhcurveto
          endchar
        </CharString>
        <CharString name="O">
          -63 callgsubr
          endchar
        </CharString>
        <CharString name="OE">
          278 221 45 rmoveto
          599 callsubr
          611 callgsubr
          444 callsubr
          140 6 callgsubr
          -535 122 callsubr
          -285 97 rmoveto
          638 callgsubr
          471 -2 callsubr
          -257 hlineto
          -7 263 callsubr
          242 vlineto
          6 185 callsubr
          229 hlineto
          9 2 4 7 147 callgsubr
          -229 hlineto
          -7 263 callsubr
          230 vlineto
          6 185 callsubr
          257 -2 callsubr
          -471 467 callsubr
          endchar
        </CharString>
        <CharString name="Oacute">
          -63 callgsubr
          2 791 362 callsubr
          7 6 3 6 4 222 callsubr
        </CharString>
        <CharString name="Obreve">
          -63 callgsubr
          -156 781 rmoveto
          -12 vlineto
          -74 31 -33 63 vhcurveto
          10 hlineto
          64 31 279 callsubr
          endchar
        </CharString>
        <CharString name="Ocircumflex">
          -63 callgsubr
          -26 782 81 callgsubr
          7 hhcurveto
          24 hlineto
          6 4 449 callgsubr
        </CharString>
        <CharString name="Odieresis">
          -63 callgsubr
          674 vmoveto
          46 callgsubr
        </CharString>
        <CharString name="Ograve">
          -63 callgsubr
          -101 780 369 callsubr
          -6 -4 182 callgsubr
          21 hlineto
          6 337 callgsubr
        </CharString>
        <CharString name="Ohungarumlaut">
          -63 callgsubr
          67 791 rmoveto
          -8 430 callsubr
          -5 361 callsubr
          -3 4 -7 hhcurveto
          -155 hmoveto
          -8 283 callgsubr
          5 3 6 5 528 callsubr
          -4 4 -7 hhcurveto
          endchar
        </CharString>
        <CharString name="Omacron">
          -63 callgsubr
          44 707 232 callgsubr
        </CharString>
        <CharString name="Oslash">
          62 431 499 62 callsubr
        </CharString>
        <CharString name="Oslashacute">
          61 280 707 rmoveto
          6 6 3 6 5 hvcurveto
          89 109 rlineto
          6 5 -3 5 -7 568 callsubr
          7 hhcurveto
          171 -208 62 callsubr
        </CharString>
        <CharString name="Otilde">
          -63 callgsubr
          -44 714 rmoveto
          32 12 3 10 19 hhcurveto
          23 370 callgsubr
          5 317 callsubr
          -12 -9 -40 -15 vhcurveto
          -40 -16 203 callgsubr
          -39 vlineto
          557 callgsubr
          endchar
        </CharString>
        <CharString name="P">
          27 145 288 rmoveto
          -7 -3 3 5 hvcurveto
          293 vlineto
          6 185 callsubr
          176 512 callgsubr
          -63 hvcurveto
          -113 vlineto
          -62 -32 -36 -62 vhcurveto
          -197 -288 400 callsubr
          222 vlineto
          5 185 callsubr
          180 325 callgsubr
          117 vlineto
          88 -55 54 -86 vhcurveto
          -230 1 callgsubr
          endchar
        </CharString>
        <CharString name="Pi">
          108 186 hmoveto
          -89 callsubr
          575 vlineto
          6 185 callsubr
          192 hlineto
          6 -68 callsubr
          -575 95 callgsubr
          575 vlineto
          6 3 3 6 vhcurveto
          88 hlineto
          636 callsubr
          25 127 callsubr
          -506 hlineto
          -9 52 callgsubr
          -25 -79 callsubr
          87 hlineto
          6 4 -3 -5 hvcurveto
          -576 434 callgsubr
          endchar
        </CharString>
        <CharString name="Q">
          59 416 -133 rmoveto
          7 5 4 9 -5 hvcurveto
          -75 121 rlineto
          81 3 51 53 85 vvcurveto
          359 vlineto
          88 -55 54 -86 vhcurveto
          -122 451 callgsubr
          77 hlineto
          74 -121 rlineto
          -10 6 5 -2 9 hhcurveto
          -167 178 rmoveto
          599 callsubr
          611 callgsubr
          444 callsubr
          114 60 callsubr
          endchar
        </CharString>
        <CharString name="R">
          -31 callgsubr
          endchar
        </CharString>
        <CharString name="Racute">
          -31 callgsubr
          214 836 57 callsubr
          -7 hhcurveto
          endchar
        </CharString>
        <CharString name="Rcaron">
          -31 callgsubr
          147 707 405 callgsubr
          -54 664 callsubr
          -3 1 -7 354 callsubr
          endchar
        </CharString>
        <CharString name="S">
          65 81 142 -49 callsubr
        </CharString>
        <CharString name="Sacute">
          65 327 callgsubr
          -300 -694 -49 callsubr
        </CharString>
        <CharString name="Scaron">
          65 290 707 rmoveto
          9 6 2 7 5 hvcurveto
          63 109 rlineto
          6 4 -1 55 callsubr
          -188 -565 -49 callsubr
        </CharString>
        <CharString name="Scircumflex">
          65 312 827 131 callgsubr
          23 hlineto
          7 3 1 5 3 hvcurveto
          53 387 callsubr
          24 hlineto
          7 1 5 6 -4 hvcurveto
          -294 -576 -49 callsubr
        </CharString>
        <CharString name="Sigma">
          -16 234 319 rmoveto
          -168 -268 rlineto
          -3 -5 -2 -5 -9 vvcurveto
          -21 vlineto
          -7 3 -4 8 vhcurveto
          340 hlineto
          8 3 4 5 hvcurveto
          26 vlineto
          8 304 callgsubr
          -292 4 hlineto
          163 252 6 10 0 14 -6 10 rlinecurve
          -162 254 rlineto
          4 290 vlineto
          9 3 4 7 hvcurveto
          26 -51 callsubr
          -339 348 callgsubr
          -22 vlineto
          -8 1 -6 4 -5 vhcurveto
          168 -268 rlineto
          endchar
        </CharString>
        <CharString name="T">
          80 callgsubr
          endchar
        </CharString>
        <CharString name="Tbar">
          4 230 hmoveto
          326 callgsubr
          302 vlineto
          6 185 callsubr
          103 701 callgsubr
          7 hvcurveto
          20 465 callgsubr
          -103 hlineto
          -7 263 callsubr
          216 vlineto
          6 185 callsubr
          147 -2 callsubr
          -364 621 callsubr
          147 6 callgsubr
          -216 122 callsubr
          -94 hlineto
          -9 -3 -3 -8 hvcurveto
          -20 vlineto
          -7 3 -3 9 vhcurveto
          94 6 callgsubr
          -302 286 callsubr
        </CharString>
        <CharString name="Tcaron">
          80 callgsubr
          4 707 492 callgsubr
          -6 -4 -1 -5 -2 hvcurveto
          -54 396 callgsubr
        </CharString>
        <CharString name="Thorn">
          4 155 hmoveto
          -89 callsubr
          112 35 callgsubr
          116 hlineto
          86 54 54 87 hvcurveto
          94 vlineto
          88 402 callgsubr
          -116 255 callsubr
          112 491 callsubr
          49 178 598 callsubr
          269 35 callgsubr
          111 hlineto
          62 33 -36 -63 hvcurveto
          -90 vlineto
          -62 -33 -36 -62 vhcurveto
          endchar
        </CharString>
        <CharString name="U">
          -69 callgsubr
          endchar
        </CharString>
        <CharString name="Uacute">
          -69 callgsubr
          -125 193 57 callsubr
          -7 hhcurveto
          endchar
        </CharString>
        <CharString name="Ubreve">
          -69 callgsubr
          -284 183 rmoveto
          -12 vlineto
          -74 31 -33 63 vhcurveto
          10 hlineto
          64 31 69 callgsubr
          -5 vhcurveto
          -19 284 callsubr
          endchar
        </CharString>
        <CharString name="Ucircumflex">
          -69 callgsubr
          -154 184 54 callsubr
          53 97 54 537 callsubr
        </CharString>
        <CharString name="Udieresis">
          -69 callgsubr
          -128 76 rmoveto
          46 callgsubr
        </CharString>
        <CharString name="Ugrave">
          -69 callgsubr
          -223 182 195 callgsubr
        </CharString>
        <CharString name="Uhungarumlaut">
          -69 callgsubr
          -65 193 rmoveto
          -8 283 callgsubr
          5 3 6 5 hvcurveto
          79 109 rlineto
          7 6 -4 4 -7 hhcurveto
          -154 hmoveto
          -9 283 callgsubr
          6 3 6 4 528 callsubr
          -4 4 -6 hhcurveto
          endchar
        </CharString>
        <CharString name="Umacron">
          -69 callgsubr
          -84 109 232 callgsubr
        </CharString>
        <CharString name="Uogonek">
          55 433 643 438 callsubr
          -487 92 callgsubr
          -103 hlineto
          104 callgsubr
          487 vlineto
          -77 callgsubr
          -489 174 callsubr
          86 vhcurveto
          58 671 callsubr
          35 10 13 10 -5 3 -23 hvcurveto
          -39 hlineto
          53 70 rlineto
          19 239 callsubr
          490 vlineto
          8 490 callgsubr
          endchar
        </CharString>
        <CharString name="Uring">
          -69 callgsubr
          -192 79 rmoveto
          -31 -14 17 34 hvcurveto
          21 vlineto
          33 14 17 32 vhcurveto
          11 hlineto
          32 14 -17 -33 hvcurveto
          -21 vlineto
          -34 -14 -17 -32 vhcurveto
          4 -27 rmoveto
          46 27 26 47 hvcurveto
          31 vlineto
          47 -27 26 -46 vhcurveto
          -20 hlineto
          -46 -25 -26 -47 hvcurveto
          -31 vlineto
          -47 25 -26 46 vhcurveto
          endchar
        </CharString>
        <CharString name="Utilde">
          -69 callgsubr
          -172 116 rmoveto
          32 12 3 10 18 hhcurveto
          24 370 callgsubr
          5 317 callsubr
          -12 -9 -40 -16 vhcurveto
          -40 -15 203 callgsubr
          -39 vlineto
          -52 13 -26 47 666 callgsubr
          17 vhcurveto
          endchar
        </CharString>
        <CharString name="V">
          3 273 hmoveto
          7 4 3 9 2 hvcurveto
          186 619 rlineto
          9 2 505 callgsubr
          -8 -3 -3 -9 -2 hvcurveto
          -167 -569 rlineto
          -4 hlineto
          -167 569 rlineto
          9 -2 505 callgsubr
          -8 -4 -3 -9 3 hvcurveto
          186 -619 233 callgsubr
          endchar
        </CharString>
        <CharString name="W">
          297 -57 callsubr
          endchar
        </CharString>
        <CharString name="Wacute">
          298 -57 callsubr
          283 328 callgsubr
        </CharString>
        <CharString name="Wcircumflex">
          298 -57 callsubr
          245 827 85 callgsubr
          7 hhcurveto
          23 360 callsubr
        </CharString>
        <CharString name="Wdieresis">
          298 -57 callsubr
          271 719 42 callgsubr
        </CharString>
        <CharString name="Wgrave">
          298 -57 callsubr
          163 825 rmoveto
          8 -3 -6 3 -9 hhcurveto
          -44 hlineto
          -7 -3 -5 -6 5 222 callgsubr
          2 4 8 -4 hvcurveto
          endchar
        </CharString>
        <CharString name="X">
          7 414 10 rmoveto
          -7 4 5 -3 6 hhcurveto
          34 hlineto
          8 2 5 7 -4 hvcurveto
          -182 328 173 291 rlineto
          8 4 -4 4 -7 hhcurveto
          -33 hlineto
          -8 -4 -3 -9 -5 hvcurveto
          -148 -257 rlineto
          -4 hlineto
          -150 257 rlineto
          9 -4 -6 3 -8 hhcurveto
          -31 hlineto
          -7 -4 -5 -7 4 hvcurveto
          173 -292 -183 -327 rlineto
          -7 -3 667 callgsubr
          34 hlineto
          7 4 3 7 4 hvcurveto
          160 290 rlineto
          4 hlineto
          endchar
        </CharString>
        <CharString name="Y">
          -12 callgsubr
          endchar
        </CharString>
        <CharString name="Yacute">
          -12 callgsubr
          76 836 rmoveto
          -8 380 callsubr
          endchar
        </CharString>
        <CharString name="Ycircumflex">
          -12 callgsubr
          44 827 107 callsubr
        </CharString>
        <CharString name="Ydieresis">
          -12 callgsubr
          71 213 callgsubr
        </CharString>
        <CharString name="Ygrave">
          -12 callgsubr
          -28 825 369 callsubr
          -6 -4 182 callgsubr
          21 hlineto
          6 337 callgsubr
        </CharString>
        <CharString name="Z">
          12 callgsubr
          endchar
        </CharString>
        <CharString name="Zacute">
          12 callgsubr
          276 799 362 callsubr
          6 6 3 6 5 222 callsubr
        </CharString>
        <CharString name="Zcaron">
          12 callgsubr
          204 670 492 callgsubr
          -7 -3 613 callsubr
          -54 -97 -53 330 callsubr
          -24 360 callgsubr
        </CharString>
        <CharString name="Zdotaccent">
          12 callgsubr
          194 686 rmoveto
          -8 38 callsubr
          3 3 8 hvcurveto
          99 vlineto
          8 -3 114 callgsubr
          endchar
        </CharString>
        <CharString name="a">
          5 -61 callgsubr
          endchar
        </CharString>
        <CharString name="aacute">
          5 -61 callgsubr
          117 314 callgsubr
          289 callsubr
        </CharString>
        <CharString name="abreve">
          5 170 681 rmoveto
          -74 31 -33 63 vhcurveto
          10 hlineto
          63 32 105 callsubr
          -17 -21 -45 vhcurveto
          -5 356 callsubr
          -6 vhcurveto
          -18 284 callsubr
          99 -693 148 callsubr
        </CharString>
        <CharString name="acircumflex">
          5 -61 callgsubr
          88 694 56 callsubr
          endchar
        </CharString>
        <CharString name="acute">
          -228 150 409 callsubr
          7 hhcurveto
          19 hlineto
          7 5 3 6 5 222 callsubr
        </CharString>
        <CharString name="acute.uc">
          -212 159 836 57 callsubr
          -7 hhcurveto
          endchar
        </CharString>
        <CharString name="adieresis">
          5 -61 callgsubr
          119 586 rmoveto
          46 callgsubr
        </CharString>
        <CharString name="ae">
          30 callgsubr
          endchar
        </CharString>
        <CharString name="aeacute">
          30 callgsubr
          45 559 362 callsubr
          6 7 3 6 4 222 callsubr
        </CharString>
        <CharString name="agrave">
          5 -61 callgsubr
          29 692 rmoveto
          8 -3 -6 3 -9 hhcurveto
          -44 hlineto
          -7 -4 -5 -6 6 222 callgsubr
          1 4 8 -3 hvcurveto
          endchar
        </CharString>
        <CharString name="amacron">
          5 -61 callgsubr
          172 620 70 callsubr
        </CharString>
        <CharString name="ampersand">
          100 475 8 rmoveto
          -6 5 6 -2 6 hhcurveto
          38 hlineto
          5 1 5 4 -3 hvcurveto
          -207 239 rlineto
          201 93 callgsubr
          24 -51 callsubr
          -239 hlineto
          -63 72 rlineto
          -31 35 -12 25 42 vvcurveto
          35 vlineto
          62 33 34 61 vhcurveto
          19 hlineto
          60 32 -34 -62 hvcurveto
          -45 95 callgsubr
          46 592 callsubr
          -24 hlineto
          -86 -56 -51 -88 hvcurveto
          -36 vlineto
          -48 15 -32 31 -38 vhcurveto
          -77 -3 -29 -64 -59 vvcurveto
          -85 vlineto
          -88 55 -51 86 vhcurveto
          80 hlineto
          63 43 26 49 18 hvcurveto
          -200 -30 rmoveto
          -62 -33 34 62 hvcurveto
          80 vlineto
          61 28 34 55 3 vhcurveto
          178 -204 rlineto
          -45 -8 -31 -25 -51 hhcurveto
          endchar
        </CharString>
        <CharString name="aogonek">
          5 209 45 rmoveto
          494 callsubr
          -313 vlineto
          -63 -40 -35 -63 vhcurveto
          -69 465 rmoveto
          -86 -54 -54 -88 hvcurveto
          -226 174 callsubr
          86 vhcurveto
          64 694 callsubr
          -60 -80 rlineto
          -19 -14 4 -30 32 hhcurveto
          38 34 16 14 1 hvcurveto
          8 -5 4 -22 -1 vhcurveto
          -10 -17 -1 -12 hhcurveto
          -1 34 46 26 19 538 callgsubr
        </CharString>
        <CharString name="approxequal">
          26 167 398 rmoveto
          272 callsubr
          -7 4 -4 681 callgsubr
          -167 vmoveto
          272 callsubr
          -6 4 -5 681 callgsubr
          endchar
        </CharString>
        <CharString name="aring">
          5 174 220 callgsubr
          67 -623 148 callsubr
        </CharString>
        <CharString name="asciicircum">
          -32 357 376 rmoveto
          -8 4 4 -4 9 hhcurveto
          24 hlineto
          9 4 6 8 -5 hvcurveto
          -131 250 rlineto
          10 -5 -6 5 -13 hhcurveto
          -37 hlineto
          -13 -6 -5 -10 -5 hvcurveto
          -131 -250 rlineto
          -8 -5 4 -6 9 hhcurveto
          24 hlineto
          9 3 4 8 5 hvcurveto
          124 236 rlineto
          endchar
        </CharString>
        <CharString name="asciitilde">
          26 167 317 rmoveto
          53 77 -29 58 hhcurveto
          28 29 5 10 23 hvcurveto
          13 6 5 4 9 vvcurveto
          -75 callsubr
          -3 4 -6 vhcurveto
          -11 -34 -22 -43 -57 -71 30 -60 hhcurveto
          -28 -29 -6 -9 -22 hvcurveto
          -14 -6 -5 -4 -10 vvcurveto
          -19 vlineto
          -6 4 -5 681 callgsubr
          endchar
        </CharString>
        <CharString name="asterisk">
          -91 225 632 rmoveto
          262 callsubr
          -22 151 callgsubr
          -15 vlineto
          -53 18 -47 4 -12 vhcurveto
          6 12 16 47 53 vvcurveto
          -114 -201 rmoveto
          -5 -8 2 -5 5 -3 18 -13 rcurveline
          6 -4 5 0 4 6 9 14 rcurveline
          31 42 13 49 4 11 -12 -6 -40 -28 -31 -43 rrcurveto
          -31 136 rmoveto
          -8 3 -4 -3 -1 -6 -8 -21 rcurveline
          -2 -7 2 -4 7 -2 16 -6 rcurveline
          -15 49 51 2 12 hhcurveto
          -9 9 -40 30 -50 16 rrcurveto
          226 -37 rmoveto
          9 3 1 6 -2 5 -7 21 rcurveline
          -2 8 -3 2 -8 -3 -16 -4 rcurveline
          -50 -17 -39 -31 -10 -8 13 -2 50 0 49 16 rrcurveto
          -55 -129 rmoveto
          5 -7 5 1 5 4 18 12 rcurveline
          6 5 1 4 -4 6 -10 13 rcurveline
          -31 43 -42 27 -10 7 2 -12 15 -48 31 -42 rrcurveto
          endchar
        </CharString>
        <CharString name="at">
          256 472 225 rmoveto
          -64 -40 -35 -63 vhcurveto
          -1 551 callgsubr
          94 vlineto
          63 444 callsubr
          94 -95 callsubr
          43 -467 654 callsubr
          16 vlineto
          6 -2 4 -9 vhcurveto
          -183 hlineto
          -111 -99 83 133 hvcurveto
          155 vlineto
          133 97 83 111 vhcurveto
          193 hlineto
          68 42 -41 -70 hvcurveto
          -234 vlineto
          -64 -34 -36 -62 vhcurveto
          -9 hlineto
          -7 -4 3 6 hvcurveto
          318 vlineto
          9 -4 3 -7 vhcurveto
          -142 hlineto
          -83 -54 -54 -88 hvcurveto
          -93 vlineto
          -88 54 -52 80 39 46 10 42 22 vhcurveto
          4 -20 hlineto
          -21 17 -13 19 vhcurveto
          30 hlineto
          80 54 53 82 hvcurveto
          239 vlineto
          88 -59 58 -89 vhcurveto
          -194 hlineto
          -125 -122 -92 -160 hvcurveto
          -158 vlineto
          -163 124 -88 126 vhcurveto
          endchar
        </CharString>
        <CharString name="atilde">
          7 -61 callgsubr
          -40 654 rmoveto
          699 callgsubr
          32 13 2 10 19 hhcurveto
          23 6 520 callsubr
          52 -12 26 -47 -30 -12 -10 -40 -15 vhcurveto
          -40 -15 -5 -9 -17 518 callsubr
          endchar
        </CharString>
        <CharString name="b">
          7 75 590 callgsubr
          214 239 callsubr
          235 vlineto
          87 402 callgsubr
          -66 hlineto
          -57 -32 -24 -28 -15 hvcurveto
          -4 225 61 callsubr
          60 -646 rmoveto
          -7 263 callsubr
          321 vlineto
          64 40 34 63 vhcurveto
          66 hlineto
          62 33 -36 -62 hvcurveto
          -231 92 callgsubr
          endchar
        </CharString>
        <CharString name="backslash">
          -101 282 13 rmoveto
          -10 4 4 -3 8 hhcurveto
          26 hlineto
          8 6 4 10 -4 hvcurveto
          -13 35 -194 546 -13 35 rrcurveto
          9 -4 -4 callsubr
          hhcurveto
          -28 hlineto
          -8 -3 -6 -9 4 hvcurveto
          endchar
        </CharString>
        <CharString name="bar">
          -290 124 631 rmoveto
          647 callsubr
          -619 vlineto
          -9 4 -3 7 vhcurveto
          20 506 callgsubr
          endchar
        </CharString>
        <CharString name="braceleft">
          -199 223 643 rmoveto
          -77 -36 -54 -88 hvcurveto
          -132 vlineto
          -57 -22 -19 -40 -9 704 callsubr
          -24 vlineto
          -7 3 -4 9 40 22 -19 -57 vhcurveto
          -131 vlineto
          -88 36 -54 77 vhcurveto
          5 476 callgsubr
          -4 hlineto
          -54 -16 36 62 hvcurveto
          137 vlineto
          50 -18 35 -36 11 vhcurveto
          36 12 18 33 51 vvcurveto
          138 vlineto
          62 16 36 54 vhcurveto
          4 476 callgsubr
          endchar
        </CharString>
        <CharString name="braceright">
          -199 166 501 rmoveto
          88 -36 54 -77 vhcurveto
          -5 hlineto
          -97 callsubr
          -7 3 -4 9 vhcurveto
          4 hlineto
          53 16 -36 -62 hvcurveto
          -138 663 callgsubr
          35 -12 vhcurveto
          -35 -11 -19 -35 -50 vvcurveto
          -137 vlineto
          -62 -16 -36 -53 vhcurveto
          -4 hlineto
          -97 callsubr
          -7 3 -4 9 vhcurveto
          5 hlineto
          77 36 54 88 hvcurveto
          131 vlineto
          57 22 19 40 9 2 4 7 vhcurveto
          24 218 callsubr
          -40 -22 19 57 vhcurveto
          endchar
        </CharString>
        <CharString name="bracketleft">
          -210 207 -101 654 callsubr
          18 158 callsubr
          -89 255 callsubr
          646 35 callgsubr
          89 545 callgsubr
          18 158 callsubr
          -133 229 callgsubr
          -720 434 callgsubr
          endchar
        </CharString>
        <CharString name="bracketright">
          -210 60 -90 rmoveto
          -65 callsubr
          132 506 callgsubr
          720 vlineto
          9 -4 3 -7 vhcurveto
          -132 hlineto
          -9 52 callgsubr
          -18 -79 callsubr
          88 -95 callsubr
          -646 87 callgsubr
          -88 hlineto
          -9 52 callgsubr
          endchar
        </CharString>
        <CharString name="breve">
          -165 66 517 callgsubr
          -5 180 callgsubr
          endchar
        </CharString>
        <CharString name="breve.uc">
          -154 72 826 rmoveto
          -12 vlineto
          -74 31 -33 63 vhcurveto
          10 hlineto
          63 32 105 callsubr
          -17 -21 -46 vhcurveto
          -4 hlineto
          -44 -17 20 57 373 callsubr
          -18 284 callsubr
          endchar
        </CharString>
        <CharString name="brokenbar">
          -296 122 257 rmoveto
          8 603 callgsubr
          -23 151 callgsubr
          -245 vlineto
          -9 4 -3 7 vhcurveto
          23 375 callsubr
          619 vmoveto
          683 callsubr
          -23 hlineto
          24 callgsubr
          -245 657 callgsubr
          23 hlineto
          7 3 3 8 hvcurveto
          endchar
        </CharString>
        <CharString name="bullet">
          -224 181 380 rmoveto
          15 -8 7 -13 vhcurveto
          -47 hlineto
          -14 -8 -7 -15 hvcurveto
          -122 vlineto
          -15 8 -7 14 vhcurveto
          47 hlineto
          13 8 7 15 hvcurveto
          endchar
        </CharString>
        <CharString name="c">
          27 callsubr
          endchar
        </CharString>
        <CharString name="cacute">
          27 callsubr
          -73 692 rmoveto
          -8 65 callgsubr
          4 hvcurveto
          90 140 callsubr
          endchar
        </CharString>
        <CharString name="caron">
          -171 152 574 101 callgsubr
          endchar
        </CharString>
        <CharString name="caron.uc">
          -171 152 707 101 callgsubr
          endchar
        </CharString>
        <CharString name="ccaron">
          27 callsubr
          -135 563 46 callsubr
        </CharString>
        <CharString name="ccedilla">
          -103 349 465 rmoveto
          9 2 3 7 hvcurveto
          254 callgsubr
          -144 -46 callsubr
          32 hlineto
          -39 -44 rlineto
          -16 -15 8 -23 24 hhcurveto
          12 476 callsubr
          -22 -14 -10 -39 vhcurveto
          -19 hlineto
          -9 -3 -3 -7 hvcurveto
          -13 vlineto
          -6 3 520 callgsubr
          44 46 rlineto
          69 hlineto
          9 2 3 8 417 callsubr
          -140 hlineto
          104 callgsubr
          222 88 callgsubr
          endchar
        </CharString>
        <CharString name="cdotaccent">
          27 callsubr
          -155 578 rmoveto
          -8 324 callsubr
          6 4 250 callgsubr
          -8 hvcurveto
          endchar
        </CharString>
        <CharString name="cedilla">
          -240 74 -44 rmoveto
          393 callsubr
          3 -4 8 vhcurveto
          25 hlineto
          52 472 callgsubr
          62 66 rlineto
          -44 hlineto
          endchar
        </CharString>
        <CharString name="cedilla.uc">
          -218 85 -44 rmoveto
          -16 -14 7 -23 24 hhcurveto
          12 476 callsubr
          -24 -13 -8 -40 vhcurveto
          -19 hlineto
          -9 -2 -3 -7 hvcurveto
          -13 vlineto
          -6 2 520 callgsubr
          63 66 rlineto
          -44 hlineto
          endchar
        </CharString>
        <CharString name="cent">
          -83 271 -90 rmoveto
          7 4 3 8 hvcurveto
          79 85 vlineto
          636 callsubr
          24 vlineto
          6 304 callgsubr
          -158 hlineto
          104 callgsubr
          222 88 callgsubr
          158 hlineto
          8 3 4 6 hvcurveto
          24 vlineto
          7 -6 4 -9 vhcurveto
          -81 91 hlineto
          9 -4 3 -7 228 callgsubr
          -8 hvcurveto
          -91 -33 vlineto
          -85 -53 -55 -87 hvcurveto
          -226 vlineto
          -87 53 -55 85 vhcurveto
          33 -79 hlineto
          -8 4 -3 7 vhcurveto
          endchar
        </CharString>
        <CharString name="circumflex">
          -171 193 694 107 callsubr
        </CharString>
        <CharString name="circumflex.uc">
          -171 193 827 107 callsubr
        </CharString>
        <CharString name="colon">
          -306 123 131 157 callgsubr
          487 vmoveto
          421 callsubr
          endchar
        </CharString>
        <CharString name="comma">
          -306 123 131 rmoveto
          345 callgsubr
        </CharString>
        <CharString name="commaaccent">
          -497 253 344 callsubr
          endchar
        </CharString>
        <CharString name="copyright">
          226 205 643 rmoveto
          -81 -52 -52 -81 hvcurveto
          -377 vlineto
          -81 52 -52 81 vhcurveto
          313 hlineto
          81 51 52 81 hvcurveto
          377 vlineto
          81 -51 52 -81 vhcurveto
          -308 -605 rmoveto
          -63 -34 36 64 hvcurveto
          367 169 callgsubr
          303 hlineto
          63 34 -36 -64 hvcurveto
          -367 vlineto
          -64 -34 -36 -63 vhcurveto
          -19 364 rmoveto
          80 -42 34 -79 vhcurveto
          -27 hlineto
          -79 -42 -34 -80 hvcurveto
          -167 vlineto
          -80 42 -33 79 vhcurveto
          27 hlineto
          79 42 33 80 hvcurveto
          26 vlineto
          7 -3 3 -6 vhcurveto
          -22 hlineto
          -6 -4 -3 -7 hvcurveto
          -22 vlineto
          -63 -22 -18 -63 vhcurveto
          -18 hlineto
          -62 -23 18 63 hvcurveto
          159 vlineto
          64 23 17 62 vhcurveto
          18 hlineto
          63 22 -17 -64 hvcurveto
          -16 vlineto
          -8 4 -2 6 vhcurveto
          22 hlineto
          6 3 2 8 hvcurveto
          endchar
        </CharString>
        <CharString name="d">
          7 120 callgsubr
          endchar
        </CharString>
        <CharString name="dagger">
          -70 217 hmoveto
          6 5 -86 callsubr
          2 12 8 250 52 vvcurveto
          34 -3 50 -4 21 219 callsubr
          138 6 rlineto
          -4 -23 -2 -52 -29 vvcurveto
          -53 8 -250 2 -12 vhcurveto
          -9 4 -3 7 vhcurveto
          endchar
        </CharString>
        <CharString name="daggerdbl">
          -70 194 431 rmoveto
          -3 -24 -3 -56 -31 vvcurveto
          -32 3 -54 3 -23 vhcurveto
          -138 6 rlineto
          -9 1 -2 -5 -7 vvcurveto
          -26 vlineto
          -7 641 callgsubr
          139 7 -7 -165 rlineto
          -9 -1 5 -3 7 hhcurveto
          296 callgsubr
          -7 165 140 -7 rlineto
          8 3 3 7 hvcurveto
          26 vlineto
          7 -3 5 -8 -1 vhcurveto
          -140 -7 rlineto
          4 23 3 52 34 vvcurveto
          34 -3 56 -4 22 219 callsubr
          endchar
        </CharString>
        <CharString name="dcaron">
          37 120 callgsubr
          337 692 rmoveto
          440 callgsubr
          -32 402 callsubr
          -8 hvcurveto
          -218 445 callgsubr
          3 4 3 2 5 2 vhcurveto
          25 91 602 callsubr
          16 20 vvcurveto
          endchar
        </CharString>
        <CharString name="dcroat">
          42 379 633 callsubr
          -67 hlineto
          104 callgsubr
          156 vlineto
          62 33 36 61 vhcurveto
          67 hlineto
          63 40 -34 -64 hvcurveto
          -109 -300 rmoveto
          397 callgsubr
          6 vhcurveto
          29 506 callgsubr
          535 vlineto
          6 185 callsubr
          63 624 callgsubr
          -63 hlineto
          -7 263 callsubr
          84 vlineto
          -77 callgsubr
          -84 87 callgsubr
          -161 656 callgsubr
          -20 401 callgsubr
          161 -95 callsubr
          -156 -4 vlineto
          29 -15 -32 24 -58 hhcurveto
          -65 152 callgsubr
          -160 174 callsubr
          86 vhcurveto
          endchar
        </CharString>
        <CharString name="degree">
          -199 155 540 rmoveto
          -12 hlineto
          -26 -6 8 24 hvcurveto
          69 vlineto
          25 6 7 26 vhcurveto
          12 hlineto
          26 5 -7 -25 hvcurveto
          -69 vlineto
          -24 -5 -8 -26 vhcurveto
          14 -29 rmoveto
          30 20 18 31 hvcurveto
          97 vlineto
          30 -20 17 -30 vhcurveto
          -42 hlineto
          -31 -18 -17 -30 hvcurveto
          -97 vlineto
          -31 18 -18 31 vhcurveto
          endchar
        </CharString>
        <CharString name="dieresis">
          -152 230 586 rmoveto
          684 callsubr
          28 hlineto
          6 4 81 callsubr
          -3 -3 -8 hvcurveto
          -164 -106 80 callsubr
          endchar
        </CharString>
        <CharString name="dieresis.uc">
          -158 227 719 rmoveto
          684 callsubr
          28 hlineto
          6 4 81 callsubr
          -3 -3 -8 hvcurveto
          -164 -106 80 callsubr
          endchar
        </CharString>
        <CharString name="divide">
          13 234 434 rmoveto
          -9 4 -3 7 vhcurveto
          20 506 callgsubr
          60 vlineto
          647 callsubr
          190 -193 436 callsubr
          18 -51 callsubr
          -338 hlineto
          -9 52 callgsubr
          -18 -79 callsubr
          148 -154 653 callsubr
          20 666 callsubr
          9 hvcurveto
          61 vlineto
          647 callsubr
          endchar
        </CharString>
        <CharString name="dollar">
          7 275 -98 400 callsubr
          86 9 vlineto
          85 359 callgsubr
          66 vlineto
          107 -62 30 -78 2 vhcurveto
          -72 hlineto
          -67 1 -37 21 70 vvcurveto
          58 vlineto
          67 33 35 64 vhcurveto
          70 hlineto
          64 33 -35 -65 hvcurveto
          -24 vlineto
          -9 4 -3 7 vhcurveto
          29 284 callgsubr
          28 vlineto
          86 -54 56 -84 vhcurveto
          -9 86 hlineto
          9 -4 3 -7 vhcurveto
          -23 hlineto
          24 callgsubr
          -86 -32 vlineto
          -86 -54 -55 -87 hvcurveto
          -63 vlineto
          -109 64 -27 83 -2 vhcurveto
          63 -1 rlineto
          66 -1 40 -21 -74 vvcurveto
          -59 vlineto
          -65 643 callsubr
          -72 hlineto
          -64 -33 36 64 hvcurveto
          28 vlineto
          9 -3 2 -7 vhcurveto
          -29 hlineto
          -7 -4 -2 -9 hvcurveto
          -31 vlineto
          -87 55 -55 85 vhcurveto
          32 -86 hlineto
          -9 4 -3 7 vhcurveto
          endchar
        </CharString>
        <CharString name="dotaccent">
          -314 66 589 237 callsubr
        </CharString>
        <CharString name="dotaccent.uc">
          -287 79 385 callgsubr
        </CharString>
        <CharString name="dotlessi">
          -285 81 12 rmoveto
          684 callsubr
          29 hlineto
          8 73 callgsubr
          endchar
        </CharString>
        <CharString name="dvDDH_DDHA">
          -10 -2 623 rmoveto
          513 callgsubr
          -87 vlineto
          -5 704 callgsubr
          -119 hlineto
          -87 -53 -54 -88 hvcurveto
          -79 vlineto
          -58 23 -44 42 -23 vhcurveto
          -40 -21 -23 -40 -56 vvcurveto
          -77 vlineto
          -87 53 -56 88 vhcurveto
          97 hlineto
          87 44 45 85 hvcurveto
          9 vlineto
          75 -28 37 -73 -74 -24 -38 -72 vhcurveto
          -15 603 callsubr
          10 vhcurveto
          19 hlineto
          7 4 4 9 hvcurveto
          14 vlineto
          50 10 21 44 46 10 -22 -50 vhcurveto
          -7 vlineto
          -61 -24 -28 -62 vhcurveto
          -94 hlineto
          -63 21 callsubr
          77 vlineto
          63 33 37 62 vhcurveto
          93 hlineto
          563 callgsubr
          9 vlineto
          75 -28 37 -73 -73 -25 -38 -72 vhcurveto
          -15 603 callsubr
          10 vhcurveto
          19 151 callsubr
          15 vlineto
          50 10 21 45 45 10 -22 -50 vhcurveto
          -7 437 callgsubr
          -94 hlineto
          235 callgsubr
          79 vlineto
          63 33 37 63 vhcurveto
          150 hlineto
          13 418 callsubr
          114 334 callsubr
          endchar
        </CharString>
        <CharString name="dvDD_GA">
          44 -90 callsubr
          380 -95 callsubr
          -82 87 callgsubr
          -177 361 callgsubr
          16 60 114 callsubr
          207 hlineto
          14 11 10 16 hvcurveto
          109 vlineto
          6 2 3 8 316 callgsubr
          endchar
        </CharString>
        <CharString name="dvD_BHA.aSimp">
          482 418 -44 rmoveto
          464 callgsubr
          -22 hlineto
          -60 callsubr
          243 797 rmoveto
          22 callgsubr
          -496 hlineto
          -9 -3 -4 -7 hvcurveto
          -19 vlineto
          -8 3 -4 9 vhcurveto
          344 107 callgsubr
          86 hlineto
          43 31 -21 -56 289 callgsubr
          204 hlineto
          7 2 -3 -6 hvcurveto
          -273 244 callgsubr
          560 vlineto
          6 3 3 7 -105 callgsubr
          endchar
        </CharString>
        <CharString name="dvH_VA.aTrad">
          37 430 233 rmoveto
          -69 vlineto
          -61 -22 -38 -63 vhcurveto
          -7 hlineto
          -59 -25 28 53 63 27 22 57 2 hvcurveto
          -340 390 259 callgsubr
          -81 vlineto
          -88 54 -53 94 vhcurveto
          254 93 callgsubr
          20 158 callgsubr
          -251 hlineto
          -69 -34 35 64 hvcurveto
          78 vlineto
          62 30 39 60 vhcurveto
          34 hlineto
          -18 -18 -12 -28 -43 vvcurveto
          -79 46 -42 86 vhcurveto
          8 hlineto
          87 44 54 88 hvcurveto
          91 vlineto
          13 -7 5 -13 vhcurveto
          -256 443 callgsubr
          121 -7 callgsubr
        </CharString>
        <CharString name="dvK_SHA.a">
          618 575 456 rmoveto
          -87 hlineto
          193 callgsubr
          -14 hvcurveto
          -4 163 8 callgsubr
          91 -106 callgsubr
          -489 hlineto
          -104 callgsubr
          307 45 callgsubr
          130 151 callsubr
          74 vlineto
          60 23 23 59 60 471 callgsubr
          -96 vlineto
          -71 -39 -23 -51 vhcurveto
          -139 hlineto
          -10 -4 -5 -7 hvcurveto
          -32 vlineto
          22 -25 160 -229 rlineto
          -6 4 4 -4 7 hhcurveto
          28 256 callsubr
          -2 534 callgsubr
          -174 247 rlineto
          97 hlineto
          84 52 42 96 hvcurveto
          95 vlineto
          86 -47 39 -84 -85 -45 -39 -86 vhcurveto
          422 125 270 callgsubr
          -587 vlineto
          -9 4 -3 7 vhcurveto
          26 506 callgsubr
          560 vlineto
          6 3 3 7 -105 callgsubr
          endchar
        </CharString>
        <CharString name="dvNG_GA">
          65 486 395 rmoveto
          -8 -3 26 callsubr
          -33 vlineto
          -9 3 -3 8 vhcurveto
          30 506 callgsubr
          33 vlineto
          9 -4 3 -7 vhcurveto
          -518 228 -98 callgsubr
          382 -95 callsubr
          -82 87 callgsubr
          -179 361 callgsubr
          17 59 114 callsubr
          209 hlineto
          14 11 10 16 hvcurveto
          109 vlineto
          6 2 3 8 vhcurveto
          117 -106 callgsubr
          endchar
        </CharString>
        <CharString name="dvNG_MA">
          231 457 393 rmoveto
          644 callsubr
          31 151 callsubr
          34 169 callsubr
          100 -397 rmoveto
          600 callgsubr
          -221 hlineto
          -5 -4 3 7 hvcurveto
          62 vlineto
          45 14 25 34 55 vvcurveto
          34 348 callsubr
          -90 hlineto
          -57 -23 16 51 52 23 16 57 hvcurveto
          161 hlineto
          14 11 10 16 hvcurveto
          109 vlineto
          6 185 callsubr
          180 -96 callsubr
          -590 -90 callgsubr
          334 -95 callsubr
          -82 87 callgsubr
          -131 367 callsubr
          88 hlineto
          57 24 -17 -52 hvcurveto
          -27 vlineto
          -52 -24 -18 -57 686 callgsubr
          16 60 hvcurveto
          9 472 callsubr
          -9 vlineto
          -88 44 -31 80 vhcurveto
          99 hlineto
          8 -208 hlineto
          51 callgsubr
          91 vlineto
          6 3 4 7 vhcurveto
          220 hlineto
          7 2 -4 -6 hvcurveto
          -181 vlineto
          -9 4 -3 8 vhcurveto
          25 hlineto
          8 -99 callsubr
          819 35 callgsubr
          84 -26 callsubr
          endchar
        </CharString>
        <CharString name="dvNY_CA">
          466 551 386 rmoveto
          -31 -18 -14 -34 -44 vvcurveto
          -45 vlineto
          -88 54 -52 87 vhcurveto
          73 hlineto
          49 33 16 32 17 hvcurveto
          668 callgsubr
          7 4 3 9 hvcurveto
          560 vlineto
          6 3 3 7 -105 callgsubr
          -967 -94 callgsubr
          815 6 callgsubr
          -325 vlineto
          496 callgsubr
          44 vlineto
          63 32 36 60 vhcurveto
          64 hlineto
          9 3 4 7 hvcurveto
          22 vlineto
          7 -3 105 callgsubr
          hlineto
          -479 79 rmoveto
          -9 182 callsubr
          9 vhcurveto
          85 hlineto
          50 39 -22 -73 hvcurveto
          -100 109 callsubr
          53 38 89 3 hvcurveto
          1 35 rlineto
          6 2 3 8 vhcurveto
          110 -2 callgsubr
          -110 535 callsubr
          endchar
        </CharString>
        <CharString name="dvOm.a01">
          130 callsubr
          142 -61 rmoveto
          -48 callsubr
          119 hlineto
          53 39 -24 -75 hvcurveto
          -323 52 callsubr
          328 vlineto
          96 -54 45 -79 vhcurveto
          endchar
        </CharString>
        <CharString name="dvOm.a02">
          130 callsubr
          255 -61 rmoveto
          -81 -44 -40 -82 hvcurveto
          -56 617 callsubr
          53 vlineto
          58 24 23 58 vhcurveto
          12 hlineto
          58 24 -23 -58 hvcurveto
          -341 52 callsubr
          346 vlineto
          83 -44 40 -81 vhcurveto
          endchar
        </CharString>
        <CharString name="dvSHA_MatraVocalicR">
          61 189 373 rmoveto
          -42 26 -33 35 366 callsubr
          -59 -38 vhcurveto
          367 -485 rmoveto
          332 callsubr
          568 vlineto
          6 2 3 8 -105 callgsubr
          -120 652 callsubr
          -371 vlineto
          -170 107 rlineto
          48 33 40 46 79 258 callsubr
          212 -135 rlineto
          -138 -12 vlineto
          404 callsubr
          endchar
        </CharString>
        <CharString name="dvTTH_TTHA">
          14 389 270 rmoveto
          -64 581 callgsubr
          64 hvcurveto
          57 169 callgsubr
          81 hlineto
          63 34 -37 -63 hvcurveto
          -476 vmoveto
          -63 581 callgsubr
          63 hvcurveto
          58 169 callgsubr
          81 hlineto
          63 34 -37 -63 hvcurveto
          -391 714 -98 callgsubr
          336 -95 callsubr
          -26 695 callgsubr
          -54 -89 hvcurveto
          -60 vlineto
          -89 55 -55 87 vhcurveto
          87 hlineto
          18 16 2 5 15 hvcurveto
          -4 vlineto
          -60 -27 -14 -44 vhcurveto
          -65 hlineto
          -87 -55 -55 -88 hvcurveto
          -60 vlineto
          -89 55 -55 87 vhcurveto
          87 325 callgsubr
          68 vlineto
          62 -33 45 -51 12 660 callgsubr
          24 46 vvcurveto
          33 vlineto
          28 25 16 37 47 vvcurveto
          68 vlineto
          62 -33 46 -51 11 660 callgsubr
          25 45 vvcurveto
          30 vlineto
          6 2 3 8 vhcurveto
          111 -7 callgsubr
        </CharString>
        <CharString name="dvTT_GA">
          13 -90 callsubr
          354 -96 callsubr
          -107 508 callgsubr
          -143 hlineto
          -88 -54 -55 -87 hvcurveto
          -67 vlineto
          -69 34 -50 59 -17 vhcurveto
          -99 vlineto
          -73 -38 -22 -51 vhcurveto
          -14 hlineto
          -8 182 callsubr
          8 vhcurveto
          18 hlineto
          79 54 41 97 hvcurveto
          93 1 vlineto
          115 hlineto
          9 9 1 1 9 hvcurveto
          -319 vlineto
          -9 4 -3 7 vhcurveto
          25 hlineto
          8 -99 callsubr
          334 vlineto
          42 22 25 43 60 307 callsubr
          -110 hlineto
          -63 -34 36 63 hvcurveto
          66 169 callgsubr
          172 660 callsubr
          135 vlineto
          6 3 522 callsubr
        </CharString>
        <CharString name="dvT_KH_NA">
          844 867 280 rmoveto
          -64 -28 -34 -62 vhcurveto
          -10 hlineto
          531 callsubr
          36 vlineto
          64 28 33 62 vhcurveto
          10 hlineto
          62 28 -33 -64 hvcurveto
          -869 307 -98 callgsubr
          511 408 callsubr
          60 -4 -36 42 -63 hhcurveto
          -85 hlineto
          -79 -56 -41 -98 hvcurveto
          -152 vlineto
          -27 callgsubr
          152 vlineto
          73 37 22 50 vhcurveto
          81 658 callgsubr
          -28 vlineto
          20 -24 167 -248 236 callgsubr
          110 callsubr
          4 -2 3 -3 4 hvcurveto
          -177 263 rlineto
          41 hlineto
          72 1 50 40 90 vvcurveto
          44 callgsubr
          617 -96 callsubr
          -188 87 callgsubr
          -180 hlineto
          -54 -37 -30 -47 -2 hvcurveto
          -4 22 hlineto
          84 -47 53 -90 vhcurveto
          -10 hlineto
          -90 -47 -53 -84 hvcurveto
          -43 vlineto
          -85 47 -53 90 vhcurveto
          10 hlineto
          84 47 46 76 5 hvcurveto
          4 hlineto
          -18 6 -21 6 -16 vhcurveto
          -8 3 6 89 callgsubr
          169 hlineto
          7 3 -4 -6 hvcurveto
          -310 vlineto
          -9 4 -3 7 vhcurveto
          26 506 callgsubr
          560 vlineto
          6 3 3 7 -105 callgsubr
          endchar
        </CharString>
        <CharString name="dvT_S_NA">
          672 1029 384 rmoveto
          629 callgsubr
          -45 -30 -20 -31 -13 hvcurveto
          -226 4 hlineto
          -67 callgsubr
          450 -96 callsubr
          -1031 51 83 callgsubr
          323 hlineto
          297 callgsubr
          vhcurveto
          333 callsubr
          -310 vlineto
          -9 4 -3 7 vhcurveto
          26 506 callgsubr
          560 vlineto
          6 3 3 7 -105 callgsubr
          endchar
        </CharString>
        <CharString name="e">
          -78 callgsubr
          endchar
        </CharString>
        <CharString name="eacute">
          -78 callgsubr
          94 703 184 callsubr
        </CharString>
        <CharString name="ebreve">
          -5 146 681 rmoveto
          237 callgsubr
          268 -693 rmoveto
          111 callsubr
          -205 hlineto
          -62 -32 36 62 hvcurveto
          77 208 callsubr
          9 401 callsubr
          127 58 callsubr
          -81 269 598 callsubr
          89 vlineto
          62 444 callsubr
          79 512 callgsubr
          -62 hvcurveto
          -89 -30 callsubr
          endchar
        </CharString>
        <CharString name="ecaron">
          -78 callgsubr
          34 574 46 callsubr
        </CharString>
        <CharString name="ecircumflex">
          -78 callgsubr
          75 694 54 callsubr
          53 97 54 -97 rlineto
          -5 2 4 -1 6 hhcurveto
          24 hlineto
          7 2 350 callsubr
        </CharString>
        <CharString name="edieresis">
          -78 callgsubr
          102 586 rmoveto
          684 callsubr
          28 hlineto
          7 3 81 callsubr
          -3 -3 -8 hvcurveto
          -164 -106 rmoveto
          -9 4 -3 7 vhcurveto
          28 hlineto
          7 3 81 callsubr
          -4 -3 -8 hvcurveto
          endchar
        </CharString>
        <CharString name="edotaccent">
          -78 callgsubr
          19 589 237 callsubr
        </CharString>
        <CharString name="egrave">
          -78 callgsubr
          5 692 275 callsubr
          -44 hlineto
          -7 -4 -5 -6 5 hvcurveto
          90 391 callsubr
          5 432 callsubr
          1 4 8 -4 hvcurveto
          endchar
        </CharString>
</ttFont>
